<svg width="2260" height="300" viewBox="0 0 2260 300" fill="none" xmlns="http://www.w3.org/2000/svg">
<rect width="2260" height="300" fill="#E5E5E5"/>
  <symbol id="Back" viewBox="0 0 64 64">
    <g id="Back">
    <path id="Vector" d="M121.535 9.51501L113.05 18L121.535 26.485L122.95 25.071L115.878 18L122.95 10.929L121.535 9.51501Z" fill="#8A91AB"/>
    </g>
  </symbol>
<g id="Barometer">
<path id="Vector_2" d="M142 29.8C147.965 29.8 152.8 24.9647 152.8 19C152.8 13.0353 147.965 8.2 142 8.2C136.036 8.2 131.2 13.0353 131.2 19C131.2 24.9647 136.036 29.8 142 29.8Z" fill="#494F68"/>
<path id="Vector_3" d="M144.166 20.1053C144.341 19.7656 144.433 19.3874 144.433 18.9948C144.433 17.6471 143.343 16.5562 141.995 16.5562C141.602 16.5562 141.224 16.649 140.884 16.8231L138.281 14.2198C137.988 13.9267 137.513 13.9267 137.22 14.2198C136.927 14.5128 136.927 14.9879 137.22 15.281L139.823 17.8843C139.649 18.224 139.556 18.6022 139.556 18.9948C139.556 20.3425 140.647 21.4334 141.995 21.4334C142.387 21.4334 142.766 21.3406 143.105 21.1665L143.719 21.7802C144.012 22.0732 144.487 22.0733 144.78 21.7802C145.073 21.4873 145.073 21.0122 144.78 20.7191L144.166 20.1053ZM141.995 19.9327C141.476 19.9327 141.057 19.5133 141.057 18.9948C141.057 18.4782 141.476 18.0569 141.995 18.0569C142.513 18.0569 142.933 18.4763 142.933 18.9948C142.933 19.5114 142.514 19.9327 141.995 19.9327Z" fill="white"/>
</g>
<g id="BookmarkFilled">
<path id="Vector_4" d="M159 10.5C159 9.83699 159.246 9.20109 159.683 8.73224C160.121 8.2634 160.714 8 161.333 8H170.667C171.286 8 171.879 8.2634 172.317 8.73224C172.754 9.20109 173 9.83699 173 10.5V27.3753C173 27.4884 172.971 27.5993 172.917 27.6963C172.863 27.7932 172.785 27.8726 172.692 27.926C172.599 27.9794 172.494 28.0047 172.389 27.9993C172.283 27.9939 172.181 27.958 172.094 27.8953L166 24.3765L159.906 27.8953C159.819 27.958 159.717 27.9939 159.611 27.9993C159.506 28.0047 159.401 27.9794 159.308 27.926C159.215 27.8726 159.137 27.7932 159.083 27.6963C159.029 27.5993 159 27.4884 159 27.3753V10.5ZM161.333 9.25002C161.024 9.25002 160.727 9.38172 160.508 9.61614C160.29 9.85057 160.167 10.1685 160.167 10.5V26.2078L165.677 23.1052C165.773 23.037 165.885 23.0006 166 23.0006C166.115 23.0006 166.227 23.037 166.323 23.1052L171.833 26.2078V10.5C171.833 10.1685 171.71 9.85057 171.492 9.61614C171.273 9.38172 170.976 9.25002 170.667 9.25002H161.333Z" fill="#8A91AB"/>
<path id="Vector_5" d="M161.333 9.25002C161.024 9.25002 160.727 9.38172 160.508 9.61614C160.29 9.85057 160.167 10.1685 160.167 10.5V26.2078L165.677 23.1052C165.773 23.037 165.885 23.0006 166 23.0006C166.115 23.0006 166.227 23.037 166.323 23.1052L171.833 26.2078V10.5C171.833 10.1685 171.71 9.85057 171.492 9.61614C171.273 9.38172 170.976 9.25002 170.667 9.25002H161.333Z" fill="#8A91AB"/>
</g>
<g id="BookmarkOutlined">
<path id="Vector_6" d="M183 10.5C183 9.83699 183.246 9.20109 183.683 8.73224C184.121 8.2634 184.714 8 185.333 8H194.667C195.286 8 195.879 8.2634 196.317 8.73224C196.754 9.20109 197 9.83699 197 10.5V27.3753C197 27.4884 196.971 27.5993 196.917 27.6963C196.863 27.7932 196.785 27.8726 196.692 27.926C196.599 27.9794 196.494 28.0047 196.389 27.9993C196.283 27.9939 196.181 27.958 196.094 27.8953L190 24.3765L183.906 27.8953C183.819 27.958 183.717 27.9939 183.611 27.9993C183.506 28.0047 183.401 27.9794 183.308 27.926C183.215 27.8726 183.137 27.7932 183.083 27.6963C183.029 27.5993 183 27.4884 183 27.3753V10.5ZM185.333 9.25002C185.024 9.25002 184.727 9.38172 184.508 9.61614C184.29 9.85057 184.167 10.1685 184.167 10.5V26.2078L189.677 23.1052C189.773 23.037 189.885 23.0006 190 23.0006C190.115 23.0006 190.227 23.037 190.323 23.1052L195.833 26.2078V10.5C195.833 10.1685 195.71 9.85057 195.492 9.61614C195.273 9.38172 194.976 9.25002 194.667 9.25002H185.333Z" fill="#8A91AB"/>
</g>
<g id="Logo" clip-path="url(#clip0_0_1)">
<path id="circle2" d="M210.177 16.2453C213.127 16.2453 215.519 13.8535 215.519 10.9031C215.519 7.95278 213.127 5.56103 210.177 5.56103C207.226 5.56103 204.835 7.95278 204.835 10.9031C204.835 13.8535 207.226 16.2453 210.177 16.2453Z" fill="url(#paint0_radial_0_1)"/>
<g id="g6" opacity="0.67" filter="url(#filter0_f_0_1)">
<path id="path4" opacity="0.67" d="M244.635 27.9885C248.212 31.2174 256.608 34.6413 253.38 38.2191C250.151 41.7968 231.695 52.017 224.011 48.0666C220.433 44.8377 227.216 34.4411 230.445 30.8633C233.674 27.2855 241.057 24.7596 244.635 27.9885V27.9885Z" fill="url(#paint1_linear_0_1)" fill-opacity="0.3"/>
</g>
<g id="g10" filter="url(#filter1_ii_0_1)">
<path id="path8" fill-rule="evenodd" clip-rule="evenodd" d="M215.958 25.5653V25.5656H208.933C205.436 25.5656 202.602 22.731 202.602 19.2344C202.602 15.7377 205.436 12.9032 208.933 12.9032H209.28C210.507 12.9032 211.657 13.2342 212.645 13.8119C213.93 10.0059 217.529 7.26555 221.769 7.26555H222.246C227.299 7.26555 231.396 11.362 231.396 16.4154C231.396 21.4688 227.299 25.5653 222.246 25.5653H215.958Z" fill="white"/>
</g>
</g>
<g id="TooltipArrow">
<path id="Vector_7" fill-rule="evenodd" clip-rule="evenodd" d="M235.6 4.7C235.766 4.47909 236.079 4.43431 236.3 4.6L239.9 7.3C240.121 7.46568 240.166 7.77908 240 8C239.834 8.22091 239.521 8.26568 239.3 8.1L236.693 6.14493C239.699 22.5076 254.971 30.4042 267.909 28.0084L268.091 28.9916C254.65 31.4808 238.771 23.2626 235.694 6.24105L233.7 8.9C233.534 9.12091 233.221 9.16568 233 9C232.779 8.83431 232.734 8.52091 232.9 8.3L235.6 4.7Z" fill="#8A91AB"/>
</g>
<g id="Clear">
<g id="Group" filter="url(#filter2_d_0_1)">
<path id="Vector_8" d="M99.5899 251.165C128.074 251.165 151.165 228.074 151.165 199.59C151.165 171.106 128.074 148.014 99.5899 148.014C71.1056 148.014 48.0144 171.106 48.0144 199.59C48.0144 228.074 71.1056 251.165 99.5899 251.165Z" fill="#FA9E42"/>
</g>
<path id="Vector_9" fill-rule="evenodd" clip-rule="evenodd" d="M99.0186 130.002C99.2089 130.001 99.3993 130 99.5899 130C99.7805 130 99.971 130.001 100.161 130.002C102.923 130.025 105.143 132.281 105.121 135.042C105.099 137.804 102.842 140.024 100.081 140.002C99.9173 140.001 99.7537 140 99.5899 140C99.4262 140 99.2626 140.001 99.0992 140.002C96.3378 140.024 94.0813 137.804 94.0591 135.042C94.0368 132.281 96.2573 130.025 99.0186 130.002ZM127.083 140.913C128.447 138.511 131.499 137.67 133.9 139.033C134.23 139.221 134.559 139.411 134.886 139.603C137.264 141.006 138.056 144.071 136.653 146.45C135.251 148.829 132.186 149.62 129.807 148.218C129.527 148.053 129.246 147.89 128.963 147.729C126.562 146.366 125.72 143.314 127.083 140.913ZM72.0965 140.913C73.4598 143.314 72.6183 146.366 70.2168 147.729C69.9341 147.89 69.6528 148.053 69.373 148.218C66.9942 149.62 63.9289 148.829 62.5265 146.45C61.124 144.071 61.9155 141.006 64.2942 139.603C64.6211 139.411 64.9496 139.221 65.2799 139.033C67.6813 137.67 70.7332 138.511 72.0965 140.913ZM152.73 162.527C155.109 161.124 158.174 161.915 159.577 164.294C159.769 164.621 159.959 164.95 160.147 165.28C161.51 167.681 160.669 170.733 158.267 172.096C155.866 173.46 152.814 172.618 151.451 170.217C151.29 169.934 151.127 169.653 150.962 169.373C149.56 166.994 150.351 163.929 152.73 162.527ZM46.4498 162.527C48.8286 163.929 49.62 166.994 48.2176 169.373C48.0526 169.653 47.8898 169.934 47.7293 170.217C46.366 172.618 43.3141 173.46 40.9127 172.096C38.5112 170.733 37.6697 167.681 39.033 165.28C39.2205 164.95 39.4106 164.621 39.6033 164.294C41.0057 161.915 44.071 161.124 46.4498 162.527ZM164.137 194.059C166.899 194.037 169.155 196.257 169.178 199.019C169.179 199.209 169.18 199.399 169.18 199.59C169.18 199.78 169.179 199.971 169.178 200.161C169.155 202.923 166.899 205.143 164.137 205.121C161.376 205.099 159.156 202.842 159.178 200.081C159.179 199.917 159.18 199.754 159.18 199.59C159.18 199.426 159.179 199.263 159.178 199.099C159.156 196.338 161.376 194.081 164.137 194.059ZM35.0424 194.059C37.8037 194.081 40.0242 196.338 40.002 199.099C40.0007 199.263 40 199.426 40 199.59C40 199.754 40.0007 199.917 40.002 200.081C40.0242 202.842 37.8037 205.099 35.0424 205.121C32.2811 205.143 30.0245 202.923 30.0023 200.161C30.0008 199.971 30 199.78 30 199.59C30 199.399 30.0008 199.209 30.0023 199.019C30.0245 196.257 32.2811 194.037 35.0424 194.059ZM158.267 227.083C160.669 228.447 161.51 231.499 160.147 233.9C159.959 234.23 159.769 234.559 159.577 234.886C158.174 237.264 155.109 238.056 152.73 236.653C150.351 235.251 149.56 232.186 150.962 229.807C151.127 229.527 151.29 229.246 151.451 228.963C152.814 226.562 155.866 225.72 158.267 227.083ZM40.9127 227.083C43.3141 225.72 46.366 226.562 47.7293 228.963C47.8898 229.246 48.0526 229.527 48.2176 229.807C49.62 232.186 48.8286 235.251 46.4498 236.653C44.071 238.056 41.0057 237.264 39.6033 234.886C39.4106 234.559 39.2205 234.23 39.033 233.9C37.6697 231.499 38.5112 228.447 40.9127 227.083ZM136.653 252.73C138.056 255.109 137.264 258.174 134.886 259.577C134.559 259.769 134.23 259.959 133.9 260.147C131.499 261.51 128.447 260.669 127.083 258.267C125.72 255.866 126.562 252.814 128.963 251.451C129.246 251.29 129.527 251.127 129.807 250.962C132.186 249.56 135.251 250.351 136.653 252.73ZM62.5265 252.73C63.9289 250.351 66.9942 249.56 69.373 250.962C69.6528 251.127 69.9341 251.29 70.2169 251.451C72.6183 252.814 73.4598 255.866 72.0965 258.267C70.7332 260.669 67.6813 261.51 65.2799 260.147C64.9496 259.959 64.6211 259.769 64.2943 259.577C61.9155 258.174 61.124 255.109 62.5265 252.73ZM94.0591 264.137C94.0813 261.376 96.3378 259.156 99.0992 259.178C99.2626 259.179 99.4262 259.18 99.5899 259.18C99.7537 259.18 99.9173 259.179 100.081 259.178C102.842 259.156 105.099 261.376 105.121 264.137C105.143 266.899 102.923 269.155 100.161 269.178C99.971 269.179 99.7805 269.18 99.5899 269.18C99.4976 269.18 99.4054 269.18 99.3131 269.179C99.2149 269.179 99.1168 269.178 99.0186 269.178C96.2573 269.155 94.0368 266.899 94.0591 264.137Z" fill="#FA9E42"/>
<g id="Group_2" filter="url(#filter3_f_0_1)">
<path id="Vector_10" d="M96.0023 193.115C114.044 183.532 124.25 167.442 118.798 157.177C113.346 146.912 94.2998 146.358 76.2578 155.941C58.2158 165.524 48.0098 181.614 53.4621 191.88C58.9144 202.145 77.9603 202.698 96.0023 193.115Z" fill="#F8E36F"/>
</g>
</g>
<g id="Clouds">
<g id="Group_3" filter="url(#filter4_d_0_1)">
<path id="Vector_11" d="M360.244 258.694H258.297C248.408 258.686 238.904 254.853 231.777 247.997C224.649 241.141 220.45 231.794 220.058 221.912C219.666 212.03 223.113 202.38 229.675 194.981C236.238 187.583 245.408 183.01 255.266 182.219C256.672 172.293 261.154 163.057 268.083 155.81C275.012 148.564 284.038 143.672 293.892 141.824C303.746 139.975 313.932 141.262 323.016 145.504C332.1 149.746 339.626 156.729 344.534 165.471C353.537 162.354 363.264 161.99 372.474 164.425C381.685 166.859 389.961 171.982 396.248 179.14C402.535 186.297 406.548 195.166 407.774 204.613C409 214.061 407.384 223.659 403.133 232.185C400.638 239.888 395.767 246.603 389.218 251.365C382.67 256.128 374.781 258.694 366.684 258.694H360.244Z" fill="url(#paint2_linear_0_1)"/>
<path id="Vector_12" d="M366.684 258.161C370.796 258.161 374.838 257.504 378.699 256.21C382.433 254.958 385.938 253.131 389.117 250.78C392.26 248.455 395.015 245.671 397.305 242.504C399.624 239.298 401.414 235.771 402.626 232.021L402.639 231.983L402.657 231.946C404.268 228.726 405.509 225.319 406.345 221.82C407.206 218.22 407.642 214.5 407.642 210.764C407.642 207.548 407.318 204.334 406.679 201.211C406.056 198.168 405.127 195.175 403.917 192.315C402.73 189.507 401.259 186.798 399.548 184.264C397.852 181.754 395.905 179.394 393.76 177.249C391.615 175.104 389.254 173.157 386.745 171.461C384.211 169.749 381.502 168.279 378.694 167.091C375.834 165.882 372.84 164.953 369.798 164.33C366.675 163.691 363.461 163.367 360.245 163.367C354.92 163.367 349.692 164.243 344.709 165.972L344.288 166.118L344.07 165.73C340.014 158.518 334.115 152.461 327.009 148.215C323.416 146.067 319.555 144.408 315.535 143.282C311.387 142.121 307.078 141.533 302.729 141.533C296.879 141.533 291.169 142.585 285.757 144.662C280.528 146.668 275.731 149.565 271.5 153.274C267.294 156.962 263.803 161.313 261.124 166.206C258.38 171.22 256.586 176.631 255.793 182.291L255.734 182.715L255.308 182.748C250.537 183.122 245.947 184.378 241.665 186.481C237.505 188.526 233.789 191.291 230.623 194.699C224.116 201.704 220.533 210.83 220.533 220.396C220.533 225.495 221.531 230.44 223.5 235.096C224.446 237.333 225.618 239.492 226.982 241.51C228.333 243.51 229.884 245.391 231.594 247.1C233.303 248.809 235.183 250.361 237.183 251.712C239.202 253.075 241.36 254.247 243.598 255.193C248.253 257.162 253.199 258.161 258.297 258.161H360.245H366.684ZM366.684 258.693H360.245H258.297C237.146 258.693 220 241.547 220 220.396C220 200.265 235.532 183.762 255.266 182.217C258.53 158.924 278.536 141 302.729 141C320.677 141 336.321 150.864 344.534 165.469C349.456 163.762 354.742 162.834 360.245 162.834C386.716 162.834 408.174 184.293 408.174 210.764C408.174 218.463 406.359 225.739 403.133 232.185C398.162 247.568 383.722 258.693 366.684 258.693Z" fill="white" fill-opacity="0.5"/>
</g>
</g>
<g id="Drizzle">
<path id="Vector_13" d="M520.646 228.421C521.027 228.426 524.897 235.583 524.897 238.364C524.897 241.145 522.993 243.4 520.646 243.4C518.298 243.4 516.395 241.145 516.395 238.364C516.395 235.583 520.264 228.416 520.646 228.421Z" fill="#42A0F0"/>
<path id="Vector_14" d="M518.119 239.402C518.714 239.197 519.214 238.399 519.236 237.62C519.258 236.841 518.793 236.376 518.198 236.58C517.603 236.785 517.103 237.583 517.081 238.362C517.059 239.141 517.524 239.607 518.119 239.402Z" fill="white"/>
<path id="Vector_15" d="M550.144 228.421C550.525 228.426 554.395 235.583 554.395 238.364C554.395 241.145 552.492 243.4 550.144 243.4C547.797 243.4 545.893 241.145 545.893 238.364C545.893 235.583 549.763 228.416 550.144 228.421Z" fill="#42A0F0"/>
<path id="Vector_16" d="M547.617 239.402C548.212 239.197 548.712 238.399 548.734 237.62C548.756 236.841 548.291 236.376 547.696 236.58C547.102 236.785 546.602 237.583 546.58 238.362C546.558 239.141 547.022 239.607 547.617 239.402Z" fill="white"/>
<path id="Vector_17" d="M581.792 228.421C582.173 228.426 586.043 235.583 586.043 238.364C586.043 241.145 584.14 243.4 581.792 243.4C579.445 243.4 577.541 241.145 577.541 238.364C577.541 235.583 581.411 228.416 581.792 228.421Z" fill="#42A0F0"/>
<path id="Vector_18" d="M579.265 239.402C579.86 239.197 580.36 238.399 580.382 237.62C580.404 236.841 579.939 236.376 579.344 236.58C578.75 236.785 578.25 237.583 578.228 238.362C578.206 239.141 578.67 239.607 579.265 239.402Z" fill="white"/>
<path id="Vector_19" d="M611.022 227.57C611.403 227.575 615.273 234.732 615.273 237.513C615.273 240.294 613.37 242.549 611.022 242.549C608.675 242.549 606.771 240.294 606.771 237.513C606.771 234.732 610.641 227.565 611.022 227.57Z" fill="#42A0F0"/>
<path id="Vector_20" d="M608.495 238.551C609.09 238.346 609.59 237.548 609.612 236.769C609.634 235.99 609.169 235.525 608.575 235.729C607.98 235.934 607.48 236.732 607.458 237.511C607.436 238.29 607.901 238.756 608.495 238.551Z" fill="white"/>
<path id="Vector_21" d="M565.038 247.427C565.419 247.432 569.288 254.589 569.288 257.37C569.288 260.151 567.385 262.405 565.038 262.405C562.69 262.405 560.787 260.151 560.787 257.37C560.787 254.589 564.656 247.422 565.038 247.427Z" fill="#42A0F0"/>
<path id="Vector_22" d="M562.511 258.407C563.106 258.202 563.606 257.405 563.627 256.626C563.649 255.847 563.185 255.381 562.59 255.586C561.995 255.791 561.495 256.588 561.473 257.368C561.451 258.147 561.916 258.612 562.511 258.407Z" fill="white"/>
<path id="Vector_23" d="M596.685 247.427C597.066 247.432 600.936 254.589 600.936 257.37C600.936 260.151 599.032 262.405 596.685 262.405C594.337 262.405 592.434 260.151 592.434 257.37C592.434 254.589 596.304 247.422 596.685 247.427Z" fill="#42A0F0"/>
<path id="Vector_24" d="M594.158 258.407C594.753 258.202 595.253 257.405 595.275 256.626C595.297 255.847 594.832 255.381 594.237 255.586C593.642 255.791 593.142 256.588 593.12 257.368C593.099 258.147 593.563 258.612 594.158 258.407Z" fill="white"/>
<path id="Vector_25" d="M630.194 247.427C630.575 247.432 634.445 254.589 634.445 257.37C634.445 260.151 632.541 262.405 630.194 262.405C627.847 262.405 625.943 260.151 625.943 257.37C625.943 254.589 629.813 247.422 630.194 247.427Z" fill="#42A0F0"/>
<path id="Vector_26" d="M627.667 258.407C628.262 258.202 628.762 257.405 628.784 256.626C628.806 255.847 628.341 255.381 627.746 255.586C627.151 255.791 626.651 256.588 626.63 257.368C626.608 258.147 627.072 258.612 627.667 258.407Z" fill="white"/>
<path id="Vector_27" d="M533.39 248.278C533.771 248.283 537.641 255.44 537.641 258.221C537.641 261.002 535.738 263.256 533.39 263.256C531.043 263.256 529.139 261.002 529.139 258.221C529.139 255.44 533.009 248.273 533.39 248.278Z" fill="#42A0F0"/>
<path id="Vector_28" d="M530.863 259.258C531.458 259.054 531.958 258.256 531.98 257.477C532.002 256.698 531.537 256.232 530.942 256.437C530.347 256.642 529.847 257.44 529.826 258.219C529.804 258.998 530.268 259.463 530.863 259.258Z" fill="white"/>
<path id="Vector_29" d="M503.604 247.427C503.985 247.432 507.855 254.589 507.855 257.37C507.855 260.151 505.951 262.405 503.604 262.405C501.256 262.405 499.353 260.151 499.353 257.37C499.353 254.589 503.223 247.422 503.604 247.427Z" fill="#42A0F0"/>
<path id="Vector_30" d="M501.077 258.407C501.672 258.202 502.172 257.405 502.194 256.626C502.216 255.847 501.751 255.381 501.156 255.586C500.561 255.791 500.061 256.588 500.04 257.368C500.018 258.147 500.482 258.612 501.077 258.407Z" fill="white"/>
<path id="Vector_31" d="M520.646 262.461C521.027 262.466 524.897 269.623 524.897 272.404C524.897 275.185 522.993 277.44 520.646 277.44C518.298 277.44 516.395 275.185 516.395 272.404C516.395 269.623 520.264 262.456 520.646 262.461Z" fill="#42A0F0"/>
<path id="Vector_32" d="M518.119 273.442C518.714 273.237 519.214 272.439 519.236 271.66C519.258 270.881 518.793 270.415 518.198 270.62C517.603 270.825 517.103 271.623 517.081 272.402C517.059 273.181 517.524 273.646 518.119 273.442Z" fill="white"/>
<path id="Vector_33" d="M550.144 262.461C550.525 262.466 554.395 269.623 554.395 272.404C554.395 275.185 552.492 277.44 550.144 277.44C547.797 277.44 545.893 275.185 545.893 272.404C545.893 269.623 549.763 262.456 550.144 262.461Z" fill="#42A0F0"/>
<path id="Vector_34" d="M547.617 273.442C548.212 273.237 548.712 272.439 548.734 271.66C548.756 270.881 548.291 270.415 547.696 270.62C547.102 270.825 546.602 271.623 546.58 272.402C546.558 273.181 547.022 273.646 547.617 273.442Z" fill="white"/>
<path id="Vector_35" d="M581.792 262.461C582.173 262.466 586.043 269.623 586.043 272.404C586.043 275.185 584.14 277.44 581.792 277.44C579.445 277.44 577.541 275.185 577.541 272.404C577.541 269.623 581.411 262.456 581.792 262.461Z" fill="#42A0F0"/>
<path id="Vector_36" d="M579.265 273.442C579.86 273.237 580.36 272.439 580.382 271.66C580.404 270.881 579.939 270.415 579.344 270.62C578.75 270.825 578.25 271.623 578.228 272.402C578.206 273.181 578.67 273.646 579.265 273.442Z" fill="white"/>
<path id="Vector_37" d="M611.022 262.461C611.403 262.466 615.273 269.623 615.273 272.404C615.273 275.185 613.37 277.44 611.022 277.44C608.675 277.44 606.771 275.185 606.771 272.404C606.771 269.623 610.641 262.456 611.022 262.461Z" fill="#42A0F0"/>
<path id="Vector_38" d="M608.495 273.442C609.09 273.237 609.59 272.439 609.612 271.66C609.634 270.881 609.169 270.415 608.575 270.62C607.98 270.825 607.48 271.623 607.458 272.402C607.436 273.181 607.901 273.646 608.495 273.442Z" fill="white"/>
<g id="Group_4" filter="url(#filter5_d_0_1)">
<path id="Vector_39" d="M609.245 240.694H507.298C497.408 240.686 487.905 236.853 480.777 229.997C473.65 223.142 469.45 213.794 469.059 203.912C468.667 194.03 472.113 184.38 478.676 176.981C485.238 169.583 494.409 165.01 504.267 164.219C505.672 154.293 510.155 145.056 517.084 137.81C524.013 130.564 533.039 125.672 542.893 123.824C552.747 121.975 562.932 123.262 572.016 127.504C581.101 131.746 588.626 138.729 593.535 147.471C602.538 144.354 612.265 143.99 621.475 146.425C630.686 148.859 638.962 153.982 645.249 161.14C651.536 168.298 655.549 177.166 656.775 186.613C658.001 196.061 656.385 205.66 652.134 214.185C649.639 221.888 644.768 228.603 638.219 233.366C631.671 238.128 623.782 240.694 615.685 240.694H609.245Z" fill="url(#paint3_linear_0_1)"/>
<path id="Vector_40" d="M615.684 240.161C619.796 240.161 623.838 239.504 627.699 238.21C631.433 236.958 634.938 235.131 638.117 232.78C641.26 230.455 644.015 227.671 646.305 224.504C648.624 221.298 650.414 217.771 651.626 214.021L651.639 213.983L651.657 213.946C653.268 210.726 654.509 207.319 655.345 203.82C656.206 200.22 656.642 196.5 656.642 192.764C656.642 189.548 656.318 186.334 655.679 183.211C655.056 180.168 654.127 177.175 652.917 174.315C651.73 171.507 650.259 168.798 648.548 166.264C646.852 163.754 644.905 161.394 642.76 159.249C640.615 157.104 638.254 155.157 635.745 153.461C633.211 151.749 630.502 150.279 627.694 149.091C624.834 147.882 621.84 146.952 618.798 146.33C615.675 145.691 612.461 145.367 609.245 145.367C603.92 145.367 598.692 146.243 593.709 147.972L593.288 148.118L593.07 147.73C589.014 140.518 583.115 134.461 576.009 130.215C572.416 128.067 568.555 126.408 564.535 125.282C560.387 124.121 556.078 123.533 551.729 123.533C545.879 123.533 540.169 124.585 534.757 126.662C529.528 128.668 524.731 131.565 520.5 135.274C516.294 138.962 512.803 143.313 510.124 148.206C507.38 153.22 505.586 158.631 504.793 164.291L504.734 164.715L504.308 164.748C499.537 165.122 494.947 166.378 490.665 168.481C486.505 170.526 482.789 173.291 479.623 176.699C473.116 183.704 469.533 192.83 469.533 202.396C469.533 207.495 470.531 212.44 472.5 217.096C473.446 219.333 474.618 221.492 475.982 223.51C477.333 225.51 478.884 227.391 480.594 229.1C482.303 230.809 484.183 232.361 486.183 233.712C488.202 235.076 490.36 236.247 492.598 237.193C497.253 239.162 502.199 240.161 507.297 240.161H609.245H615.684ZM615.684 240.693H609.245H507.297C486.146 240.693 469 223.547 469 202.396C469 182.265 484.532 165.762 504.266 164.217C507.53 140.924 527.536 123 551.729 123C569.677 123 585.321 132.865 593.534 147.469C598.456 145.762 603.742 144.834 609.245 144.834C635.716 144.834 657.174 166.293 657.174 192.764C657.174 200.463 655.359 207.739 652.133 214.185C647.162 229.568 632.722 240.693 615.684 240.693Z" fill="white" fill-opacity="0.5"/>
</g>
</g>
<g id="Dust">
<g id="Group_5" filter="url(#filter6_i_0_1)">
<path id="Vector_41" d="M741 152C743.761 152 746 149.761 746 147C746 144.239 743.761 142 741 142C738.239 142 736 144.239 736 147C736 149.761 738.239 152 741 152Z" fill="#BBB185"/>
<path id="Vector_42" d="M741 194C743.761 194 746 191.761 746 189C746 186.239 743.761 184 741 184C738.239 184 736 186.239 736 189C736 191.761 738.239 194 741 194Z" fill="#BBB185"/>
<path id="Vector_43" d="M741 236C743.761 236 746 233.761 746 231C746 228.239 743.761 226 741 226C738.239 226 736 228.239 736 231C736 233.761 738.239 236 741 236Z" fill="#BBB185"/>
<path id="Vector_44" d="M754 173C756.761 173 759 170.761 759 168C759 165.239 756.761 163 754 163C751.239 163 749 165.239 749 168C749 170.761 751.239 173 754 173Z" fill="#BBB185"/>
<path id="Vector_45" d="M754 215C756.761 215 759 212.761 759 210C759 207.239 756.761 205 754 205C751.239 205 749 207.239 749 210C749 212.761 751.239 215 754 215Z" fill="#BBB185"/>
<path id="Vector_46" d="M754 257C756.761 257 759 254.761 759 252C759 249.239 756.761 247 754 247C751.239 247 749 249.239 749 252C749 254.761 751.239 257 754 257Z" fill="#BBB185"/>
<path id="Vector_47" d="M766 152C768.761 152 771 149.761 771 147C771 144.239 768.761 142 766 142C763.239 142 761 144.239 761 147C761 149.761 763.239 152 766 152Z" fill="#BBB185"/>
<path id="Vector_48" d="M766 194C768.761 194 771 191.761 771 189C771 186.239 768.761 184 766 184C763.239 184 761 186.239 761 189C761 191.761 763.239 194 766 194Z" fill="#BBB185"/>
<path id="Vector_49" d="M766 236C768.761 236 771 233.761 771 231C771 228.239 768.761 226 766 226C763.239 226 761 228.239 761 231C761 233.761 763.239 236 766 236Z" fill="#BBB185"/>
<path id="Vector_50" d="M779 173C781.761 173 784 170.761 784 168C784 165.239 781.761 163 779 163C776.239 163 774 165.239 774 168C774 170.761 776.239 173 779 173Z" fill="#BBB185"/>
<path id="Vector_51" d="M779 215C781.761 215 784 212.761 784 210C784 207.239 781.761 205 779 205C776.239 205 774 207.239 774 210C774 212.761 776.239 215 779 215Z" fill="#BBB185"/>
<path id="Vector_52" d="M779 257C781.761 257 784 254.761 784 252C784 249.239 781.761 247 779 247C776.239 247 774 249.239 774 252C774 254.761 776.239 257 779 257Z" fill="#BBB185"/>
<path id="Vector_53" d="M791 152C793.761 152 796 149.761 796 147C796 144.239 793.761 142 791 142C788.239 142 786 144.239 786 147C786 149.761 788.239 152 791 152Z" fill="#BBB185"/>
<path id="Vector_54" d="M791 194C793.761 194 796 191.761 796 189C796 186.239 793.761 184 791 184C788.239 184 786 186.239 786 189C786 191.761 788.239 194 791 194Z" fill="#BBB185"/>
<path id="Vector_55" d="M791 236C793.761 236 796 233.761 796 231C796 228.239 793.761 226 791 226C788.239 226 786 228.239 786 231C786 233.761 788.239 236 791 236Z" fill="#BBB185"/>
<path id="Vector_56" d="M804 173C806.761 173 809 170.761 809 168C809 165.239 806.761 163 804 163C801.239 163 799 165.239 799 168C799 170.761 801.239 173 804 173Z" fill="#BBB185"/>
<path id="Vector_57" d="M804 215C806.761 215 809 212.761 809 210C809 207.239 806.761 205 804 205C801.239 205 799 207.239 799 210C799 212.761 801.239 215 804 215Z" fill="#BBB185"/>
<path id="Vector_58" d="M804 257C806.761 257 809 254.761 809 252C809 249.239 806.761 247 804 247C801.239 247 799 249.239 799 252C799 254.761 801.239 257 804 257Z" fill="#BBB185"/>
<path id="Vector_59" d="M816 152C818.761 152 821 149.761 821 147C821 144.239 818.761 142 816 142C813.239 142 811 144.239 811 147C811 149.761 813.239 152 816 152Z" fill="#BBB185"/>
<path id="Vector_60" d="M816 194C818.761 194 821 191.761 821 189C821 186.239 818.761 184 816 184C813.239 184 811 186.239 811 189C811 191.761 813.239 194 816 194Z" fill="#BBB185"/>
<path id="Vector_61" d="M816 236C818.761 236 821 233.761 821 231C821 228.239 818.761 226 816 226C813.239 226 811 228.239 811 231C811 233.761 813.239 236 816 236Z" fill="#BBB185"/>
<path id="Vector_62" d="M829 173C831.761 173 834 170.761 834 168C834 165.239 831.761 163 829 163C826.239 163 824 165.239 824 168C824 170.761 826.239 173 829 173Z" fill="#BBB185"/>
<path id="Vector_63" d="M829 215C831.761 215 834 212.761 834 210C834 207.239 831.761 205 829 205C826.239 205 824 207.239 824 210C824 212.761 826.239 215 829 215Z" fill="#BBB185"/>
<path id="Vector_64" d="M829 257C831.761 257 834 254.761 834 252C834 249.239 831.761 247 829 247C826.239 247 824 249.239 824 252C824 254.761 826.239 257 829 257Z" fill="#BBB185"/>
<path id="Vector_65" d="M841 152C843.761 152 846 149.761 846 147C846 144.239 843.761 142 841 142C838.239 142 836 144.239 836 147C836 149.761 838.239 152 841 152Z" fill="#BBB185"/>
<path id="Vector_66" d="M841 194C843.761 194 846 191.761 846 189C846 186.239 843.761 184 841 184C838.239 184 836 186.239 836 189C836 191.761 838.239 194 841 194Z" fill="#BBB185"/>
<path id="Vector_67" d="M841 236C843.761 236 846 233.761 846 231C846 228.239 843.761 226 841 226C838.239 226 836 228.239 836 231C836 233.761 838.239 236 841 236Z" fill="#BBB185"/>
<path id="Vector_68" d="M854 173C856.761 173 859 170.761 859 168C859 165.239 856.761 163 854 163C851.239 163 849 165.239 849 168C849 170.761 851.239 173 854 173Z" fill="#BBB185"/>
<path id="Vector_69" d="M854 215C856.761 215 859 212.761 859 210C859 207.239 856.761 205 854 205C851.239 205 849 207.239 849 210C849 212.761 851.239 215 854 215Z" fill="#BBB185"/>
<path id="Vector_70" d="M854 257C856.761 257 859 254.761 859 252C859 249.239 856.761 247 854 247C851.239 247 849 249.239 849 252C849 254.761 851.239 257 854 257Z" fill="#BBB185"/>
</g>
</g>
<g id="Rain">
<g id="Group_6" filter="url(#filter7_i_0_1)">
<path id="Vector_71" d="M959.626 247.552C960.478 247.561 969.115 261.047 969.115 266.288C969.115 268.805 968.116 271.218 966.336 272.998C964.557 274.777 962.143 275.777 959.626 275.777C957.11 275.777 954.696 274.777 952.917 272.998C951.137 271.218 950.137 268.805 950.137 266.288C950.137 261.048 958.775 247.542 959.626 247.552Z" fill="#42A0F0"/>
<path id="Vector_72" d="M952.392 269.834C953.34 270.124 954.545 268.932 955.083 267.171C955.622 265.411 955.289 263.748 954.341 263.458C953.393 263.168 952.188 264.361 951.65 266.122C951.111 267.882 951.444 269.545 952.392 269.834Z" fill="white"/>
<path id="Vector_73" d="M1009.15 247.552C1010.01 247.561 1018.64 261.047 1018.64 266.288C1018.64 268.805 1017.64 271.218 1015.86 272.998C1014.08 274.777 1011.67 275.777 1009.15 275.777C1006.64 275.777 1004.22 274.777 1002.44 272.998C1000.66 271.218 999.665 268.805 999.665 266.288C999.665 261.048 1008.3 247.542 1009.15 247.552Z" fill="#42A0F0"/>
<path id="Vector_74" d="M1001.92 269.834C1002.87 270.124 1004.07 268.932 1004.61 267.171C1005.15 265.411 1004.82 263.748 1003.87 263.458C1002.92 263.168 1001.72 264.361 1001.18 266.122C1000.64 267.882 1000.97 269.545 1001.92 269.834Z" fill="white"/>
<path id="Vector_75" d="M1058.68 247.552C1059.53 247.561 1068.17 261.047 1068.17 266.288C1068.17 268.805 1067.17 271.218 1065.39 272.998C1063.61 274.777 1061.2 275.777 1058.68 275.777C1056.16 275.777 1053.75 274.777 1051.97 272.998C1050.19 271.218 1049.19 268.805 1049.19 266.288C1049.19 261.048 1057.83 247.542 1058.68 247.552Z" fill="#42A0F0"/>
<path id="Vector_76" d="M1051.45 269.834C1052.39 270.124 1053.6 268.932 1054.14 267.171C1054.68 265.411 1054.34 263.748 1053.4 263.458C1052.45 263.168 1051.24 264.361 1050.7 266.122C1050.17 267.882 1050.5 269.545 1051.45 269.834Z" fill="white"/>
<path id="Vector_77" d="M984.656 206.013C985.508 206.022 994.145 219.508 994.145 224.749C994.145 227.266 993.145 229.679 991.366 231.459C989.586 233.238 987.173 234.238 984.656 234.238C982.14 234.238 979.726 233.238 977.946 231.459C976.167 229.679 975.167 227.266 975.167 224.749C975.167 219.509 983.805 206.003 984.656 206.013Z" fill="#42A0F0"/>
<path id="Vector_78" d="M977.422 228.296C978.37 228.585 979.575 227.393 980.113 225.632C980.651 223.872 980.319 222.209 979.371 221.919C978.423 221.629 977.218 222.822 976.679 224.583C976.141 226.343 976.473 228.006 977.422 228.296Z" fill="white"/>
<path id="Vector_79" d="M1036.85 206.013C1037.7 206.022 1046.34 219.508 1046.34 224.749C1046.34 227.266 1045.33 229.679 1043.56 231.459C1041.78 233.238 1039.36 234.238 1036.85 234.238C1034.33 234.238 1031.92 233.238 1030.14 231.459C1028.36 229.679 1027.36 227.266 1027.36 224.749C1027.36 219.509 1035.99 206.003 1036.85 206.013Z" fill="#42A0F0"/>
<path id="Vector_80" d="M1029.61 228.296C1030.56 228.585 1031.76 227.393 1032.3 225.632C1032.84 223.872 1032.51 222.209 1031.56 221.919C1030.61 221.629 1029.41 222.822 1028.87 224.583C1028.33 226.343 1028.66 228.006 1029.61 228.296Z" fill="white"/>
<g id="Group_7" filter="url(#filter8_d_0_1)">
<path id="Vector_81" d="M1058.25 241.694H956.297C946.408 241.686 936.904 237.853 929.777 230.997C922.649 224.141 918.45 214.794 918.058 204.912C917.667 195.03 921.113 185.38 927.675 177.981C934.238 170.583 943.408 166.01 953.266 165.219C954.672 155.293 959.155 146.056 966.083 138.81C973.012 131.564 982.038 126.672 991.892 124.824C1001.75 122.975 1011.93 124.262 1021.02 128.504C1030.1 132.745 1037.63 139.729 1042.53 148.471C1051.54 145.354 1061.26 144.99 1070.48 147.425C1079.69 149.86 1087.96 154.983 1094.25 162.141C1100.54 169.299 1104.55 178.167 1105.77 187.615C1107 197.063 1105.38 206.662 1101.13 215.187C1098.64 222.89 1093.77 229.604 1087.22 234.366C1080.67 239.128 1072.78 241.693 1064.68 241.694H1058.25Z" fill="url(#paint4_linear_0_1)"/>
<path id="Vector_82" d="M1064.68 241.161C1068.8 241.161 1072.84 240.504 1076.7 239.21C1080.43 237.958 1083.94 236.131 1087.12 233.78C1090.26 231.456 1093.01 228.672 1095.3 225.505C1097.62 222.299 1099.41 218.773 1100.62 215.023L1100.64 214.985L1100.66 214.949C1102.27 211.728 1103.51 208.32 1104.35 204.822C1105.21 201.221 1105.64 197.501 1105.64 193.764C1105.64 190.548 1105.32 187.334 1104.68 184.211C1104.06 181.168 1103.13 178.175 1101.92 175.315C1100.73 172.507 1099.26 169.798 1097.55 167.264C1095.85 164.754 1093.9 162.394 1091.76 160.249C1089.61 158.104 1087.25 156.157 1084.74 154.461C1082.21 152.749 1079.5 151.279 1076.69 150.091C1073.83 148.882 1070.84 147.952 1067.8 147.33C1064.67 146.691 1061.46 146.367 1058.24 146.367C1052.92 146.367 1047.69 147.243 1042.71 148.972L1042.29 149.118L1042.07 148.73C1038.01 141.518 1032.12 135.461 1025.01 131.215C1021.42 129.067 1017.56 127.408 1013.54 126.282C1009.39 125.121 1005.08 124.533 1000.73 124.533C994.879 124.533 989.169 125.585 983.757 127.662C978.528 129.668 973.731 132.565 969.5 136.274C965.294 139.962 961.803 144.313 959.124 149.206C956.38 154.22 954.586 159.631 953.793 165.291L953.734 165.715L953.308 165.748C948.537 166.122 943.947 167.378 939.665 169.481C935.505 171.526 931.789 174.291 928.623 177.699C922.116 184.704 918.533 193.83 918.533 203.396C918.533 208.495 919.531 213.44 921.5 218.096C922.446 220.333 923.618 222.492 924.982 224.51C926.333 226.51 927.884 228.391 929.594 230.1C931.303 231.809 933.183 233.361 935.183 234.712C937.202 236.076 939.36 237.247 941.598 238.193C946.253 240.162 951.199 241.161 956.297 241.161H1058.24H1064.68ZM1064.68 241.693H1058.24H956.297C935.146 241.693 918 224.547 918 203.396C918 183.265 933.532 166.762 953.266 165.217C956.53 141.924 976.536 124 1000.73 124C1018.68 124 1034.32 133.864 1042.53 148.468C1047.46 146.761 1052.74 145.834 1058.24 145.834C1084.71 145.834 1106.17 167.293 1106.17 193.764C1106.17 201.464 1104.36 208.74 1101.13 215.187C1096.16 230.568 1081.72 241.693 1064.68 241.693Z" fill="white" fill-opacity="0.5"/>
</g>
</g>
</g>
<g id="Snow">
<path id="Vector_83" fill-rule="evenodd" clip-rule="evenodd" d="M1222.7 202.521C1223.86 201.804 1225.38 202.162 1226.11 203.321L1261.62 260.141C1262.35 261.3 1261.99 262.82 1260.83 263.537C1259.67 264.253 1258.14 263.895 1257.42 262.736L1221.9 205.916C1221.18 204.758 1221.53 203.237 1222.7 202.521Z" fill="#42A0F0"/>
<path id="Vector_84" fill-rule="evenodd" clip-rule="evenodd" d="M1236.96 199.942C1238.28 200.276 1239.07 201.63 1238.73 202.966L1234.65 219.184C1234.31 220.52 1232.97 221.333 1231.66 220.999C1230.34 220.665 1229.55 219.311 1229.89 217.974L1233.97 201.757C1234.31 200.42 1235.65 199.608 1236.96 199.942Z" fill="#42A0F0"/>
<path id="Vector_85" fill-rule="evenodd" clip-rule="evenodd" d="M1213.75 214.584C1214.02 213.232 1215.31 212.349 1216.64 212.613L1233.06 215.861C1234.39 216.125 1235.25 217.434 1234.98 218.786C1234.72 220.138 1233.42 221.021 1232.09 220.758L1215.68 217.509C1214.35 217.246 1213.48 215.936 1213.75 214.584Z" fill="#42A0F0"/>
<path id="Vector_86" fill-rule="evenodd" clip-rule="evenodd" d="M1249.11 248.632C1249.4 247.284 1250.71 246.422 1252.04 246.707L1268.13 250.163C1269.46 250.448 1270.3 251.771 1270.02 253.119C1269.73 254.467 1268.42 255.328 1267.09 255.044L1250.99 251.588C1249.67 251.303 1248.82 249.979 1249.11 248.632Z" fill="#42A0F0"/>
<path id="Vector_87" fill-rule="evenodd" clip-rule="evenodd" d="M1252.47 246.473C1253.78 246.828 1254.55 248.195 1254.19 249.526L1249.79 265.941C1249.43 267.272 1248.08 268.063 1246.77 267.707C1245.46 267.352 1244.69 265.985 1245.05 264.655L1249.45 248.24C1249.81 246.909 1251.16 246.118 1252.47 246.473Z" fill="#42A0F0"/>
<path id="Vector_88" fill-rule="evenodd" clip-rule="evenodd" d="M1258.74 201.442C1259.87 202.046 1260.24 203.576 1259.56 204.859L1228.11 264.023C1227.43 265.307 1225.95 265.858 1224.81 265.254C1223.67 264.651 1223.3 263.121 1223.99 261.837L1255.44 202.673C1256.12 201.389 1257.6 200.838 1258.74 201.442Z" fill="#42A0F0"/>
<path id="Vector_89" fill-rule="evenodd" clip-rule="evenodd" d="M1267.83 212.112C1268.11 213.453 1267.29 214.9 1265.99 215.344L1250.21 220.74C1248.91 221.184 1247.62 220.458 1247.34 219.118C1247.05 217.778 1247.88 216.331 1249.18 215.886L1264.96 210.491C1266.26 210.046 1267.54 210.772 1267.83 212.112Z" fill="#42A0F0"/>
<path id="Vector_90" fill-rule="evenodd" clip-rule="evenodd" d="M1244.23 199.693C1245.5 199.154 1246.84 199.776 1247.22 201.081L1251.87 217.191C1252.24 218.496 1251.51 219.991 1250.23 220.53C1248.96 221.068 1247.62 220.447 1247.24 219.141L1242.59 203.032C1242.22 201.726 1242.95 200.231 1244.23 199.693Z" fill="#42A0F0"/>
<path id="Vector_91" fill-rule="evenodd" clip-rule="evenodd" d="M1232.41 247.341C1233.7 246.824 1235.03 247.469 1235.38 248.782L1239.7 264.717C1240.06 266.031 1239.31 267.516 1238.02 268.034C1236.74 268.552 1235.41 267.906 1235.05 266.593L1230.74 250.658C1230.38 249.344 1231.13 247.859 1232.41 247.341Z" fill="#42A0F0"/>
<path id="Vector_92" fill-rule="evenodd" clip-rule="evenodd" d="M1235.28 248.803C1235.55 250.15 1234.7 251.586 1233.4 252.009L1217.29 257.236C1215.98 257.659 1214.71 256.911 1214.45 255.564C1214.18 254.216 1215.03 252.781 1216.33 252.358L1232.44 247.131C1233.75 246.708 1235.02 247.456 1235.28 248.803Z" fill="#42A0F0"/>
<path id="Vector_93" fill-rule="evenodd" clip-rule="evenodd" d="M1277.32 232.264C1277.28 233.727 1276.21 234.951 1274.92 234.996L1207.95 237.341C1206.66 237.386 1205.65 236.236 1205.68 234.772C1205.72 233.309 1206.8 232.085 1208.09 232.04L1275.05 229.695C1276.34 229.65 1277.36 230.8 1277.32 232.264Z" fill="#42A0F0"/>
<path id="Vector_94" fill-rule="evenodd" clip-rule="evenodd" d="M1272.74 245.231C1271.92 246.409 1270.45 246.662 1269.45 245.795L1257.14 235.16C1256.14 234.293 1255.98 232.634 1256.79 231.456C1257.61 230.277 1259.08 230.025 1260.08 230.892L1272.39 241.526C1273.39 242.394 1273.55 244.052 1272.74 245.231Z" fill="#42A0F0"/>
<path id="Vector_95" fill-rule="evenodd" clip-rule="evenodd" d="M1272.29 218.669C1273.12 219.745 1273 221.422 1272.01 222.413L1259.71 234.735C1258.72 235.726 1257.24 235.657 1256.41 234.58C1255.58 233.503 1255.71 231.827 1256.7 230.836L1269 218.514C1269.99 217.523 1271.46 217.592 1272.29 218.669Z" fill="#42A0F0"/>
<path id="Vector_96" fill-rule="evenodd" clip-rule="evenodd" d="M1225.1 232.271C1225.92 233.363 1225.77 235.038 1224.76 236.012L1212.48 247.962C1211.48 248.937 1210 248.842 1209.19 247.75C1208.37 246.658 1208.53 244.983 1209.53 244.009L1221.81 232.059C1222.82 231.085 1224.29 231.18 1225.1 232.271Z" fill="#42A0F0"/>
<path id="Vector_97" fill-rule="evenodd" clip-rule="evenodd" d="M1224.69 235.398C1223.86 236.563 1222.39 236.79 1221.4 235.904L1209.08 224.899C1208.09 224.013 1207.95 222.351 1208.78 221.186C1209.61 220.021 1211.08 219.794 1212.07 220.679L1224.4 231.685C1225.39 232.57 1225.52 234.232 1224.69 235.398Z" fill="#42A0F0"/>
<path id="Vector_98" fill-rule="evenodd" clip-rule="evenodd" d="M1313.19 239.161C1313.95 239.488 1314.28 240.362 1313.95 241.113L1300.44 271.457C1300.1 272.208 1299.22 272.551 1298.47 272.224C1297.72 271.896 1297.38 271.022 1297.71 270.271L1311.23 239.927C1311.56 239.177 1312.44 238.833 1313.19 239.161Z" fill="#42A0F0"/>
<path id="Vector_99" fill-rule="evenodd" clip-rule="evenodd" d="M1318.23 244.571C1318.51 245.363 1318.11 246.22 1317.35 246.486L1309.72 249.137C1308.96 249.402 1308.12 248.974 1307.84 248.182C1307.57 247.39 1307.96 246.533 1308.72 246.268L1316.35 243.617C1317.12 243.352 1317.96 243.779 1318.23 244.571Z" fill="#42A0F0"/>
<path id="Vector_100" fill-rule="evenodd" clip-rule="evenodd" d="M1305.39 238.725C1306.13 238.394 1307 238.748 1307.34 239.515L1310.79 247.311C1311.13 248.078 1310.8 248.968 1310.07 249.299C1309.33 249.63 1308.46 249.277 1308.12 248.51L1304.67 240.713C1304.33 239.946 1304.65 239.056 1305.39 238.725Z" fill="#42A0F0"/>
<path id="Vector_101" fill-rule="evenodd" clip-rule="evenodd" d="M1301.2 262.696C1301.94 262.377 1302.81 262.745 1303.13 263.517L1306.41 271.239C1306.74 272.011 1306.4 272.895 1305.66 273.214C1304.92 273.533 1304.05 273.165 1303.72 272.393L1300.45 264.671C1300.12 263.899 1300.46 263.015 1301.2 262.696Z" fill="#42A0F0"/>
<path id="Vector_102" fill-rule="evenodd" clip-rule="evenodd" d="M1303.41 263.85C1303.67 264.646 1303.26 265.496 1302.5 265.749L1294.7 268.316C1293.93 268.568 1293.1 268.127 1292.83 267.331C1292.57 266.535 1292.98 265.685 1293.74 265.432L1301.54 262.865C1302.31 262.613 1303.14 263.053 1303.41 263.85Z" fill="#42A0F0"/>
<path id="Vector_103" fill-rule="evenodd" clip-rule="evenodd" d="M1323.63 253.902C1323.7 254.766 1323.13 255.533 1322.34 255.615L1289.31 259.085C1288.53 259.167 1287.84 258.533 1287.77 257.669C1287.7 256.805 1288.28 256.038 1289.06 255.956L1322.1 252.486C1322.88 252.404 1323.57 253.038 1323.63 253.902Z" fill="#42A0F0"/>
<path id="Vector_104" fill-rule="evenodd" clip-rule="evenodd" d="M1321.77 261.012C1321.31 261.694 1320.42 261.817 1319.78 261.285L1313.31 255.924C1312.67 255.392 1312.52 254.408 1312.98 253.726C1313.44 253.043 1314.33 252.921 1314.97 253.452L1321.44 258.814C1322.08 259.345 1322.23 260.329 1321.77 261.012Z" fill="#42A0F0"/>
<path id="Vector_105" fill-rule="evenodd" clip-rule="evenodd" d="M1320.31 247.194C1320.91 247.782 1320.98 248.773 1320.47 249.408L1315.24 255.898C1314.73 256.532 1313.82 256.569 1313.23 255.981C1312.63 255.393 1312.55 254.402 1313.07 253.768L1318.3 247.278C1318.81 246.643 1319.71 246.606 1320.31 247.194Z" fill="#42A0F0"/>
<path id="Vector_106" fill-rule="evenodd" clip-rule="evenodd" d="M1297.45 255.551C1298.04 256.149 1298.1 257.141 1297.58 257.766L1292.33 264.072C1291.81 264.697 1290.91 264.719 1290.31 264.121C1289.72 263.523 1289.66 262.532 1290.19 261.907L1295.44 255.601C1295.96 254.976 1296.86 254.954 1297.45 255.551Z" fill="#42A0F0"/>
<path id="Vector_107" fill-rule="evenodd" clip-rule="evenodd" d="M1297.67 257.81C1297.2 258.484 1296.31 258.591 1295.67 258.049L1289.18 252.503C1288.55 251.961 1288.41 250.975 1288.88 250.301C1289.35 249.627 1290.24 249.52 1290.88 250.062L1297.37 255.608C1298 256.15 1298.14 257.136 1297.67 257.81Z" fill="#42A0F0"/>
<path id="Vector_108" fill-rule="evenodd" clip-rule="evenodd" d="M1316.24 270.421C1315.6 270.878 1314.68 270.683 1314.17 269.986L1294.65 243.112C1294.14 242.414 1294.25 241.478 1294.88 241.021C1295.51 240.564 1296.44 240.759 1296.94 241.457L1316.47 268.33C1316.97 269.028 1316.87 269.964 1316.24 270.421Z" fill="#42A0F0"/>
<path id="Vector_109" fill-rule="evenodd" clip-rule="evenodd" d="M1309.37 272.16C1308.56 271.983 1307.99 271.182 1308.08 270.369L1309.04 262.23C1309.14 261.417 1309.87 260.902 1310.68 261.079C1311.48 261.256 1312.06 262.057 1311.96 262.87L1311 271.009C1310.91 271.822 1310.18 272.337 1309.37 272.16Z" fill="#42A0F0"/>
<path id="Vector_110" fill-rule="evenodd" clip-rule="evenodd" d="M1320.32 264.24C1320.25 265.057 1319.53 265.598 1318.73 265.448L1310.48 263.918C1309.67 263.768 1309.07 262.984 1309.14 262.166C1309.21 261.349 1309.92 260.808 1310.73 260.958L1318.98 262.488C1319.79 262.638 1320.39 263.422 1320.32 264.24Z" fill="#42A0F0"/>
<path id="Vector_111" fill-rule="evenodd" clip-rule="evenodd" d="M1301.65 248.621C1301.57 249.436 1300.85 249.965 1300.04 249.802L1291.94 248.168C1291.13 248.005 1290.55 247.212 1290.63 246.397C1290.71 245.582 1291.43 245.053 1292.24 245.216L1300.34 246.85C1301.15 247.013 1301.74 247.806 1301.65 248.621Z" fill="#42A0F0"/>
<path id="Vector_112" fill-rule="evenodd" clip-rule="evenodd" d="M1300.09 249.682C1299.29 249.493 1298.72 248.683 1298.83 247.873L1299.94 239.625C1300.05 238.816 1300.79 238.313 1301.59 238.503C1302.4 238.693 1302.96 239.502 1302.85 240.312L1301.75 248.56C1301.64 249.369 1300.9 249.872 1300.09 249.682Z" fill="#42A0F0"/>
<g id="Group_8" filter="url(#filter9_d_0_1)">
<path id="Vector_113" d="M1307.25 236.694H1205.3C1195.41 236.686 1185.9 232.853 1178.78 225.997C1171.65 219.141 1167.45 209.794 1167.06 199.912C1166.67 190.03 1170.11 180.38 1176.68 172.981C1183.24 165.583 1192.41 161.01 1202.27 160.219C1203.67 150.293 1208.15 141.056 1215.08 133.81C1222.01 126.564 1231.04 121.672 1240.89 119.823C1250.75 117.975 1260.93 119.262 1270.02 123.504C1279.1 127.746 1286.63 134.729 1291.53 143.471C1300.54 140.354 1310.26 139.99 1319.47 142.425C1328.69 144.859 1336.96 149.982 1343.25 157.14C1349.54 164.297 1353.55 173.166 1354.77 182.613C1356 192.061 1354.39 201.659 1350.13 210.185C1347.64 217.888 1342.77 224.603 1336.22 229.365C1329.67 234.128 1321.78 236.693 1313.68 236.694H1307.25Z" fill="url(#paint5_linear_0_1)"/>
<path id="Vector_114" d="M1313.68 236.161C1317.8 236.161 1321.84 235.504 1325.7 234.21C1329.43 232.958 1332.94 231.131 1336.12 228.78C1339.26 226.455 1342.01 223.671 1344.3 220.504C1346.62 217.298 1348.41 213.771 1349.63 210.021L1349.64 209.983L1349.66 209.946C1351.27 206.726 1352.51 203.319 1353.35 199.82C1354.21 196.22 1354.64 192.5 1354.64 188.764C1354.64 185.548 1354.32 182.334 1353.68 179.211C1353.06 176.168 1352.13 173.175 1350.92 170.315C1349.73 167.507 1348.26 164.798 1346.55 162.264C1344.85 159.754 1342.9 157.394 1340.76 155.249C1338.61 153.104 1336.25 151.157 1333.74 149.461C1331.21 147.749 1328.5 146.279 1325.69 145.091C1322.83 143.882 1319.84 142.952 1316.8 142.33C1313.68 141.691 1310.46 141.367 1307.24 141.367C1301.92 141.367 1296.69 142.243 1291.71 143.972L1291.29 144.118L1291.07 143.73C1287.01 136.518 1281.12 130.461 1274.01 126.215C1270.42 124.067 1266.56 122.408 1262.54 121.282C1258.39 120.121 1254.08 119.532 1249.73 119.532C1243.88 119.532 1238.17 120.585 1232.76 122.662C1227.53 124.668 1222.73 127.565 1218.5 131.274C1214.29 134.962 1210.8 139.313 1208.12 144.206C1205.38 149.22 1203.59 154.631 1202.79 160.291L1202.73 160.715L1202.31 160.748C1197.54 161.122 1192.95 162.378 1188.67 164.481C1184.5 166.526 1180.79 169.291 1177.62 172.699C1171.12 179.704 1167.53 188.83 1167.53 198.396C1167.53 203.495 1168.53 208.44 1170.5 213.096C1171.45 215.333 1172.62 217.492 1173.98 219.51C1175.33 221.51 1176.88 223.391 1178.59 225.1C1180.3 226.809 1182.18 228.361 1184.18 229.712C1186.2 231.075 1188.36 232.247 1190.6 233.193C1195.25 235.162 1200.2 236.161 1205.3 236.161H1307.24H1313.68ZM1313.68 236.693H1307.24H1205.3C1184.15 236.693 1167 219.547 1167 198.396C1167 178.265 1182.53 161.762 1202.27 160.217C1205.53 136.924 1225.54 119 1249.73 119C1267.68 119 1283.32 128.865 1291.53 143.469C1296.46 141.762 1301.74 140.834 1307.24 140.834C1333.72 140.834 1355.17 162.293 1355.17 188.764C1355.17 196.463 1353.36 203.739 1350.13 210.185C1345.16 225.568 1330.72 236.693 1313.68 236.693Z" fill="white" fill-opacity="0.5"/>
</g>
</g>
<g id="Squall">
<g id="Group_9" filter="url(#filter10_i_0_1)">
<path id="Vector_115" fill-rule="evenodd" clip-rule="evenodd" d="M1537.77 154.31C1541.75 152.641 1546.37 152.473 1551.41 154.351C1561.59 158.138 1566.51 167.683 1566.52 176.66C1566.52 185.653 1561.55 195.083 1551.07 198.127C1546.5 199.453 1538.42 200.286 1529.44 200.86C1520.27 201.447 1509.58 201.791 1499.43 201.992C1489.28 202.192 1479.63 202.248 1472.52 202.254C1468.96 202.257 1466.04 202.248 1464 202.238C1462.98 202.232 1462.19 202.227 1461.64 202.223C1461.37 202.221 1461.16 202.219 1461.02 202.218L1460.81 202.216C1460.81 202.216 1460.81 202.216 1460.86 197.216C1460.9 192.217 1460.9 192.217 1460.91 192.217H1460.91L1461.11 192.218C1461.25 192.22 1461.45 192.221 1461.72 192.223C1462.25 192.227 1463.04 192.233 1464.05 192.238C1466.07 192.248 1468.97 192.257 1472.51 192.254C1479.58 192.248 1489.16 192.192 1499.24 191.993C1509.32 191.795 1519.84 191.454 1528.8 190.88C1537.96 190.295 1544.94 189.494 1548.28 188.524C1553.6 186.978 1556.52 182.2 1556.52 176.664C1556.52 171.113 1553.53 165.809 1547.93 163.723C1545.08 162.664 1543.1 162.918 1541.63 163.533C1540.02 164.208 1538.53 165.538 1537.19 167.358C1535.86 169.161 1534.88 171.188 1534.22 172.829C1533.9 173.635 1533.66 174.314 1533.52 174.777C1533.44 175.008 1533.39 175.183 1533.36 175.291C1533.35 175.345 1533.34 175.383 1533.33 175.401L1533.33 175.405C1533.33 175.407 1533.33 175.41 1533.33 175.413C1533.33 175.414 1533.33 175.414 1533.33 175.415C1532.63 178.081 1529.91 179.685 1527.24 178.999C1524.57 178.312 1522.96 175.586 1523.65 172.912L1528.49 174.157C1523.65 172.912 1523.65 172.91 1523.65 172.908L1523.65 172.893L1523.66 172.867L1523.68 172.791C1523.69 172.731 1523.72 172.651 1523.74 172.553C1523.8 172.357 1523.88 172.086 1523.99 171.755C1524.2 171.093 1524.51 170.177 1524.94 169.107C1525.78 166.996 1527.14 164.141 1529.13 161.431C1531.12 158.737 1533.93 155.92 1537.77 154.31ZM1455.86 197.169C1455.88 194.407 1458.14 192.19 1460.91 192.217L1460.86 197.216L1460.81 202.216C1458.05 202.19 1455.83 199.93 1455.86 197.169Z" fill="#DADADA"/>
<path id="Vector_116" fill-rule="evenodd" clip-rule="evenodd" d="M1479.49 227.229C1479.49 227.229 1479.49 227.229 1479.49 227.215L1479.49 227.229C1476.74 227.513 1474.29 225.518 1474 222.771C1473.72 220.024 1475.71 217.567 1478.46 217.282L1478.98 222.255C1478.46 217.282 1478.46 217.282 1478.46 217.282L1478.64 217.263C1478.76 217.251 1478.94 217.234 1479.16 217.211C1479.62 217.166 1480.28 217.101 1481.13 217.021C1482.84 216.861 1485.28 216.639 1488.27 216.393C1494.25 215.901 1502.41 215.309 1511.13 214.915C1519.85 214.521 1529.2 214.32 1537.53 214.62C1545.69 214.913 1553.46 215.699 1558.67 217.542C1563.68 219.315 1567.53 221.824 1569.99 225.091C1572.53 228.465 1573.31 232.314 1572.65 236C1571.39 242.991 1565.25 248.534 1558.57 250.746C1555.08 251.903 1551.85 251.99 1548.97 251.228C1546.12 250.476 1543.92 248.98 1542.31 247.439C1540.71 245.911 1539.61 244.273 1538.92 243.054C1538.57 242.435 1538.31 241.897 1538.13 241.495C1538.04 241.293 1537.96 241.124 1537.91 240.993C1537.88 240.927 1537.86 240.871 1537.85 240.826L1537.82 240.765L1537.81 240.741L1537.81 240.73L1537.81 240.725C1537.81 240.722 1537.81 240.72 1542.37 239.047L1537.81 240.72C1536.86 238.127 1538.19 235.255 1540.78 234.305C1543.36 233.36 1546.21 234.672 1547.18 237.237C1547.18 237.238 1547.18 237.24 1547.18 237.242C1547.19 237.264 1547.21 237.317 1547.25 237.396C1547.32 237.556 1547.44 237.812 1547.62 238.125C1547.98 238.769 1548.52 239.543 1549.21 240.206C1549.89 240.855 1550.65 241.33 1551.52 241.56C1552.35 241.78 1553.6 241.86 1555.43 241.254C1559.67 239.847 1562.37 236.646 1562.8 234.233C1562.98 233.217 1562.82 232.199 1562 231.101C1561.09 229.894 1559.16 228.324 1555.33 226.969C1551.7 225.684 1545.3 224.906 1537.17 224.613C1529.22 224.327 1520.17 224.517 1511.59 224.905C1503.02 225.292 1494.99 225.874 1489.09 226.359C1486.15 226.601 1483.74 226.82 1482.07 226.977C1481.24 227.055 1480.59 227.119 1480.15 227.162C1479.93 227.184 1479.76 227.201 1479.65 227.212L1479.49 227.229ZM1547.19 237.275C1547.19 237.275 1547.19 237.275 1547.19 237.274V237.275ZM1547.19 237.275C1547.19 237.278 1547.2 237.28 1542.5 239L1547.2 237.28C1547.19 237.278 1547.19 237.277 1547.19 237.275Z" fill="#DADADA"/>
<path id="Vector_117" fill-rule="evenodd" clip-rule="evenodd" d="M1426.73 224.882C1426.73 222.121 1428.97 219.882 1431.73 219.882H1453.03C1455.8 219.882 1458.03 222.121 1458.03 224.882C1458.03 227.644 1455.8 229.882 1453.03 229.882H1431.73C1428.97 229.882 1426.73 227.644 1426.73 224.882Z" fill="#DADADA"/>
<path id="Vector_118" fill-rule="evenodd" clip-rule="evenodd" d="M1506.85 165.705C1507.12 168.454 1505.1 170.897 1502.36 171.164L1501.87 166.187C1502.36 171.164 1502.36 171.164 1502.36 171.164L1502.05 171.193C1501.85 171.212 1501.55 171.239 1501.17 171.274C1500.41 171.344 1499.31 171.444 1497.92 171.563C1495.16 171.802 1491.26 172.12 1486.77 172.438C1477.8 173.073 1466.32 173.714 1456.51 173.714C1446.77 173.714 1437.8 173.374 1431.27 173.034C1428.01 172.864 1425.34 172.694 1423.49 172.566C1422.57 172.502 1421.85 172.448 1421.35 172.41C1421.11 172.392 1420.92 172.377 1420.79 172.366L1420.64 172.354L1420.59 172.35C1420.59 172.35 1420.59 172.35 1421 167.367L1420.59 172.35C1417.84 172.122 1415.79 169.706 1416.02 166.954C1416.25 164.202 1418.66 162.156 1421.41 162.384L1421.45 162.387L1421.58 162.398C1421.7 162.407 1421.88 162.421 1422.12 162.439C1422.59 162.475 1423.29 162.527 1424.19 162.59C1425.99 162.714 1428.59 162.881 1431.79 163.047C1438.2 163.381 1446.99 163.714 1456.51 163.714C1465.96 163.714 1477.16 163.092 1486.06 162.463C1490.5 162.149 1494.34 161.836 1497.06 161.6C1498.43 161.483 1499.51 161.385 1500.26 161.317C1500.63 161.282 1500.91 161.256 1501.11 161.237L1501.39 161.21C1504.14 160.944 1506.58 162.956 1506.85 165.705Z" fill="#DADADA"/>
</g>
</g>
<g id="Thunderstorm">
<path id="Vector_119" d="M1700.78 193.212H1736.99L1716.17 223.788L1740.52 224.248L1689.42 284.726L1701.8 238.617H1679.13L1700.78 193.212Z" fill="url(#paint6_linear_0_1)"/>
<path id="Vector_120" d="M1756.74 225.393H1772.64L1763.5 238.817L1774.19 239.019L1751.75 265.572L1757.19 245.328H1747.24L1756.74 225.393Z" fill="url(#paint7_linear_0_1)"/>
<path id="Vector_121" d="M1646.6 238.969H1662.5L1653.36 252.394L1664.05 252.596L1641.62 279.149L1647.05 258.904H1637.1L1646.6 238.969Z" fill="url(#paint8_linear_0_1)"/>
<g id="Group_10" filter="url(#filter11_d_0_1)">
<path id="Vector_122" d="M1756.11 232.585H1654.26C1644.38 232.577 1634.89 228.748 1627.76 221.898C1620.64 215.049 1616.45 205.71 1616.06 195.837C1615.67 185.964 1619.11 176.323 1625.67 168.931C1632.22 161.54 1641.38 156.971 1651.23 156.181C1652.64 146.264 1657.12 137.036 1664.04 129.796C1670.96 122.557 1679.98 117.67 1689.82 115.823C1699.67 113.976 1709.84 115.262 1718.92 119.499C1728 123.737 1735.51 130.714 1740.42 139.448C1749.41 136.334 1759.13 135.971 1768.33 138.403C1777.53 140.835 1785.8 145.954 1792.08 153.105C1798.37 160.257 1802.37 169.117 1803.6 178.556C1804.82 187.995 1803.21 197.585 1798.96 206.103C1796.47 213.798 1791.6 220.506 1785.06 225.263C1778.52 230.021 1770.64 232.584 1762.55 232.585H1756.11Z" fill="url(#paint9_linear_0_1)"/>
<path id="Vector_123" d="M1762.55 232.052C1766.66 232.052 1770.69 231.397 1774.55 230.103C1778.28 228.852 1781.78 227.027 1784.96 224.678C1788.1 222.356 1790.85 219.575 1793.14 216.411C1795.46 213.208 1797.24 209.685 1798.46 205.939L1798.47 205.9L1798.49 205.864C1800.1 202.646 1801.34 199.242 1802.17 195.747C1803.03 192.15 1803.47 188.433 1803.47 184.699C1803.47 181.486 1803.14 178.275 1802.51 175.155C1801.88 172.115 1800.96 169.125 1799.75 166.268C1798.56 163.462 1797.09 160.756 1795.38 158.224C1793.69 155.717 1791.74 153.359 1789.6 151.216C1787.46 149.073 1785.1 147.127 1782.59 145.433C1780.06 143.723 1777.35 142.254 1774.55 141.067C1771.69 139.859 1768.7 138.93 1765.66 138.308C1762.54 137.67 1759.33 137.346 1756.12 137.346C1750.79 137.346 1745.57 138.222 1740.59 139.949L1740.17 140.094L1739.96 139.707C1735.9 132.502 1730.01 126.451 1722.91 122.208C1719.32 120.063 1715.46 118.405 1711.45 117.28C1707.3 116.12 1703 115.532 1698.65 115.532C1692.81 115.532 1687.1 116.584 1681.7 118.658C1676.47 120.662 1671.68 123.558 1667.45 127.263C1663.25 130.947 1659.76 135.294 1657.09 140.183C1654.34 145.192 1652.55 150.598 1651.76 156.253L1651.7 156.676L1651.27 156.71C1646.51 157.083 1641.92 158.338 1637.65 160.439C1633.49 162.482 1629.78 165.244 1626.61 168.65C1620.11 175.647 1616.53 184.765 1616.53 194.323C1616.53 199.416 1617.53 204.357 1619.5 209.009C1620.44 211.244 1621.61 213.4 1622.98 215.417C1624.33 217.415 1625.88 219.294 1627.58 221.002C1629.29 222.709 1631.17 224.259 1633.17 225.609C1635.18 226.972 1637.34 228.142 1639.58 229.088C1644.23 231.055 1649.17 232.052 1654.26 232.052H1756.12H1762.55ZM1762.55 232.584H1756.12H1654.26C1633.13 232.584 1616 215.454 1616 194.323C1616 174.21 1631.52 157.722 1651.23 156.179C1654.49 132.908 1674.48 115 1698.65 115C1716.58 115 1732.21 124.855 1740.42 139.446C1745.34 137.74 1750.62 136.814 1756.12 136.814C1782.56 136.814 1804 158.253 1804 184.699C1804 192.392 1802.19 199.661 1798.96 206.102C1793.99 221.469 1779.57 232.584 1762.55 232.584Z" fill="white" fill-opacity="0.5"/>
</g>
</g>
<g id="Tornado">
<g id="Group_11" filter="url(#filter12_d_0_1)">
<path id="Vector_124" d="M1902.56 213.615C1902.56 209.802 1904.87 206.22 1908.91 203.11C1895.21 197.291 1886.57 188.812 1886.57 179.372C1886.57 161.824 1916.4 147.598 1953.19 147.598C1989.98 147.598 2019.8 161.824 2019.8 179.372C2019.8 188.905 2011.01 197.454 1997.07 203.278C2000.98 206.349 2003.2 209.87 2003.2 213.615C2003.2 225.544 1980.67 235.209 1952.88 235.209C1925.09 235.209 1902.56 225.541 1902.56 213.615Z" fill="url(#paint10_linear_0_1)"/>
<path id="Vector_125" d="M1952.88 234.676C1959.64 234.676 1966.2 234.108 1972.37 232.988C1978.32 231.908 1983.67 230.362 1988.25 228.395C1990.5 227.429 1992.54 226.367 1994.32 225.239C1996.1 224.106 1997.63 222.897 1998.87 221.646C2001.39 219.087 2002.67 216.385 2002.67 213.615C2002.67 211.877 2002.15 210.145 2001.14 208.468C2000.15 206.815 1998.67 205.209 1996.74 203.697L1996.03 203.137L1996.87 202.787C2000.32 201.344 2003.46 199.725 2006.21 197.977C2008.98 196.221 2011.35 194.326 2013.28 192.345C2015.23 190.339 2016.72 188.233 2017.73 186.084C2018.75 183.892 2019.27 181.634 2019.27 179.372C2019.27 177.289 2018.83 175.205 2017.96 173.178C2017.11 171.191 2015.83 169.232 2014.17 167.357C2012.52 165.505 2010.49 163.717 2008.12 162.042C2005.76 160.377 2003.05 158.81 2000.06 157.385C1997.07 155.957 1993.77 154.661 1990.27 153.531C1986.73 152.39 1982.94 151.409 1979.01 150.617C1970.83 148.967 1962.15 148.13 1953.19 148.13C1944.23 148.13 1935.54 148.967 1927.36 150.617C1923.44 151.409 1919.65 152.39 1916.11 153.531C1912.6 154.661 1909.31 155.957 1906.31 157.385C1903.33 158.81 1900.62 160.377 1898.26 162.042C1895.89 163.717 1893.85 165.505 1892.21 167.357C1890.54 169.232 1889.27 171.191 1888.42 173.178C1887.55 175.205 1887.11 177.289 1887.11 179.372C1887.11 181.612 1887.62 183.849 1888.62 186.022C1889.6 188.151 1891.07 190.239 1892.99 192.23C1894.88 194.196 1897.21 196.079 1899.92 197.826C1902.63 199.565 1905.72 201.178 1909.11 202.62L1909.95 202.977L1909.23 203.532C1907.24 205.065 1905.71 206.695 1904.67 208.377C1903.63 210.083 1903.09 211.845 1903.09 213.615C1903.09 216.385 1904.37 219.087 1906.9 221.646C1908.13 222.897 1909.66 224.106 1911.44 225.239C1913.22 226.367 1915.26 227.429 1917.51 228.395C1922.09 230.362 1927.44 231.908 1933.39 232.988C1939.56 234.108 1946.12 234.676 1952.88 234.676ZM1952.88 235.209C1925.09 235.209 1902.56 225.541 1902.56 213.615C1902.56 209.802 1904.87 206.219 1908.91 203.11C1895.21 197.291 1886.57 188.812 1886.57 179.372C1886.57 161.824 1916.4 147.598 1953.19 147.598C1989.98 147.598 2019.8 161.824 2019.8 179.372C2019.8 188.904 2011 197.454 1997.07 203.278C2000.98 206.348 2003.2 209.87 2003.2 213.615C2003.2 225.541 1980.67 235.209 1952.88 235.209Z" fill="white" fill-opacity="0.5"/>
</g>
<path id="Vector_126" fill-rule="evenodd" clip-rule="evenodd" d="M1876.13 179.767C1876.13 174.165 1881.28 167.497 1893.36 161.939C1905.01 156.578 1921.46 153.13 1939.9 153.13C1958.33 153.13 1974.78 156.578 1986.43 161.939C1998.52 167.497 2003.67 174.165 2003.67 179.767C2003.67 185.369 1998.52 192.037 1986.43 197.595C1974.78 202.956 1958.33 206.404 1939.9 206.404C1921.46 206.404 1905.01 202.956 1893.36 197.595C1881.28 192.037 1876.13 185.369 1876.13 179.767ZM1939.9 143.13C1920.36 143.13 1902.42 146.764 1889.18 152.854C1876.38 158.746 1866.13 167.896 1866.13 179.767C1866.13 190.504 1874.51 199.015 1885.59 204.903C1884.9 205.897 1884.24 206.96 1883.65 208.063C1881.94 211.272 1880.5 215.303 1880.5 219.5C1880.5 221.575 1881.06 224.594 1883.58 227.679C1886.02 230.662 1889.99 233.34 1896.11 235.472C1897.55 235.974 1899.13 236.453 1900.87 236.902C1900.33 238.357 1900 240.049 1900 242C1900 245.653 1901.96 248.746 1904.63 251.012C1907.29 253.277 1910.96 255.018 1915.39 256.205C1924.28 258.584 1937.2 258.999 1954.38 255.922C1957.1 255.435 1958.91 252.837 1958.42 250.119C1957.94 247.4 1955.34 245.591 1952.62 246.078C1936.3 249.001 1924.97 248.416 1917.98 246.545C1914.48 245.607 1912.3 244.41 1911.11 243.394C1910.14 242.575 1910.01 242.07 1910 241.987C1910 240.189 1910.67 239.549 1911.04 239.245C1911.18 239.13 1911.32 239.035 1911.46 238.953C1924.55 240.796 1943.33 241.345 1970.34 239.488C1973.1 239.299 1975.18 236.912 1974.99 234.157C1974.8 231.402 1972.41 229.322 1969.66 229.512C1929.82 232.251 1909.53 229.559 1899.39 226.028C1894.39 224.285 1892.23 222.463 1891.33 221.353C1890.5 220.344 1890.5 219.675 1890.5 219.5C1890.5 217.487 1891.23 215.102 1892.47 212.78C1893.27 211.289 1894.17 210.021 1894.98 209.08C1907.45 213.712 1923.08 216.404 1939.9 216.404C1959.44 216.404 1977.38 212.77 1990.61 206.68C2003.42 200.788 2013.67 191.638 2013.67 179.767C2013.67 167.896 2003.42 158.746 1990.61 152.854C1977.38 146.764 1959.44 143.13 1939.9 143.13Z" fill="#B2B2B2"/>
<path id="Vector_127" fill-rule="evenodd" clip-rule="evenodd" d="M1891.46 241.597C1892.04 242.183 1892.04 243.133 1891.46 243.719L1888.78 246.392C1888.2 246.978 1887.25 246.978 1886.66 246.392C1886.08 245.806 1886.08 244.856 1886.66 244.271L1889.33 241.597C1889.92 241.012 1890.87 241.012 1891.46 241.597Z" fill="#FFD100"/>
<path id="Vector_128" fill-rule="evenodd" clip-rule="evenodd" d="M1886.66 241.597C1887.25 241.012 1888.2 241.012 1888.78 241.597L1891.46 244.271C1892.04 244.856 1892.04 245.806 1891.46 246.392C1890.87 246.978 1889.92 246.978 1889.33 246.392L1886.66 243.719C1886.08 243.133 1886.08 242.183 1886.66 241.597Z" fill="#FFD100"/>
<path id="Vector_129" fill-rule="evenodd" clip-rule="evenodd" d="M1887.73 148.401C1888.31 148.987 1888.31 149.937 1887.73 150.522L1885.05 153.196C1884.47 153.781 1883.52 153.781 1882.93 153.196C1882.35 152.61 1882.35 151.66 1882.93 151.074L1885.61 148.401C1886.19 147.815 1887.14 147.815 1887.73 148.401Z" fill="#FFD100"/>
<path id="Vector_130" fill-rule="evenodd" clip-rule="evenodd" d="M1882.93 148.401C1883.52 147.815 1884.47 147.815 1885.05 148.401L1887.73 151.074C1888.31 151.66 1888.31 152.61 1887.73 153.196C1887.14 153.781 1886.19 153.781 1885.61 153.196L1882.93 150.522C1882.35 149.937 1882.35 148.987 1882.93 148.401Z" fill="#FFD100"/>
<path id="Vector_131" fill-rule="evenodd" clip-rule="evenodd" d="M2001.69 230.414C2002.28 231 2002.28 231.949 2001.69 232.535L1999.02 235.208C1998.43 235.794 1997.48 235.794 1996.9 235.208C1996.31 234.623 1996.31 233.673 1996.9 233.087L1999.57 230.414C2000.16 229.828 2001.11 229.828 2001.69 230.414Z" fill="#FFD100"/>
<path id="Vector_132" fill-rule="evenodd" clip-rule="evenodd" d="M1996.9 230.414C1997.48 229.828 1998.43 229.828 1999.02 230.414L2001.69 233.087C2002.28 233.673 2002.28 234.623 2001.69 235.208C2001.11 235.794 2000.16 235.794 1999.57 235.208L1996.9 232.535C1996.31 231.949 1996.31 231 1996.9 230.414Z" fill="#FFD100"/>
<path id="Vector_133" fill-rule="evenodd" clip-rule="evenodd" d="M2016.07 197.396C2016.66 197.981 2016.66 198.931 2016.07 199.517L2013.4 202.19C2012.81 202.776 2011.86 202.776 2011.28 202.19C2010.69 201.605 2010.69 200.655 2011.28 200.069L2013.95 197.396C2014.54 196.81 2015.49 196.81 2016.07 197.396Z" fill="#FFD100"/>
<path id="Vector_134" fill-rule="evenodd" clip-rule="evenodd" d="M2011.28 197.396C2011.86 196.81 2012.81 196.81 2013.4 197.396L2016.07 200.069C2016.66 200.655 2016.66 201.605 2016.07 202.19C2015.49 202.776 2014.54 202.776 2013.95 202.19L2011.28 199.517C2010.69 198.931 2010.69 197.981 2011.28 197.396Z" fill="#FFD100"/>
</g>
<g id="Atmosphere">
<g id="Group_12" filter="url(#filter13_i_0_1)">
<path id="Vector_135" fill-rule="evenodd" clip-rule="evenodd" d="M2158.56 191.913C2156.32 192.778 2154.44 193.84 2153.38 194.585C2151.13 196.177 2148.01 195.639 2146.42 193.383C2144.82 191.127 2145.36 188.008 2147.62 186.415C2149.4 185.16 2152.01 183.722 2154.95 182.587C2157.86 181.46 2161.41 180.5 2165 180.5C2169.41 180.5 2172.33 182.353 2174.25 183.569C2174.36 183.637 2174.47 183.703 2174.57 183.766C2176.36 184.892 2177.46 185.5 2179.5 185.5C2181.75 185.5 2183.61 184.731 2186.01 183.528C2186.22 183.427 2186.43 183.316 2186.66 183.198C2188.75 182.128 2191.93 180.5 2195.5 180.5C2199.13 180.5 2202.43 182.172 2204.59 183.267C2204.77 183.358 2204.95 183.446 2205.11 183.528C2207.69 184.818 2209.33 185.5 2211 185.5C2212.22 185.5 2214.18 184.986 2216.29 184.053C2217.28 183.615 2218.17 183.141 2218.88 182.713C2219.23 182.5 2219.51 182.313 2219.71 182.163C2219.9 182.026 2219.97 181.957 2219.97 181.957C2219.97 181.957 2219.97 181.957 2219.97 181.958C2221.92 180.012 2225.09 180.014 2227.04 181.965C2228.99 183.917 2228.99 187.083 2227.04 189.036C2225.54 190.527 2222.87 192.077 2220.34 193.197C2217.74 194.347 2214.28 195.5 2211 195.5C2206.69 195.5 2203.1 193.702 2200.68 192.492L2200.64 192.472C2197.77 191.037 2196.57 190.5 2195.5 190.5C2194.46 190.5 2193.44 190.995 2190.49 192.472C2187.89 193.769 2184.25 195.5 2179.5 195.5C2174.54 195.5 2171.43 193.608 2169.25 192.234C2167.18 190.934 2166.43 190.5 2165 190.5C2163.09 190.5 2160.81 191.04 2158.56 191.913Z" fill="white"/>
<path id="Vector_136" fill-rule="evenodd" clip-rule="evenodd" d="M2148.06 237.913C2145.82 238.778 2143.94 239.84 2142.88 240.585C2140.63 242.177 2137.51 241.639 2135.92 239.383C2134.32 237.127 2134.86 234.008 2137.12 232.415C2138.9 231.16 2141.51 229.722 2144.45 228.587C2147.36 227.46 2150.91 226.5 2154.5 226.5C2158.91 226.5 2161.83 228.353 2163.75 229.569C2163.86 229.637 2163.97 229.703 2164.07 229.766C2165.86 230.892 2166.96 231.5 2169 231.5C2171.25 231.5 2173.11 230.731 2175.51 229.528C2175.72 229.427 2175.93 229.316 2176.16 229.198C2178.25 228.128 2181.43 226.5 2185 226.5C2188.63 226.5 2191.93 228.172 2194.09 229.267C2194.27 229.358 2194.45 229.446 2194.61 229.528C2197.19 230.818 2198.83 231.5 2200.5 231.5C2201.72 231.5 2203.68 230.986 2205.79 230.053C2206.78 229.615 2207.67 229.141 2208.38 228.713C2208.73 228.5 2209.01 228.313 2209.21 228.163C2209.4 228.027 2209.47 227.957 2209.47 227.957C2209.47 227.957 2209.47 227.957 2209.47 227.958C2211.42 226.012 2214.59 226.014 2216.54 227.964C2218.49 229.917 2218.49 233.083 2216.54 235.036C2215.04 236.527 2212.37 238.077 2209.84 239.197C2207.24 240.347 2203.78 241.5 2200.5 241.5C2196.19 241.5 2192.6 239.702 2190.18 238.492L2190.14 238.472C2187.27 237.037 2186.07 236.5 2185 236.5C2183.96 236.5 2182.94 236.995 2179.99 238.472C2177.39 239.769 2173.75 241.5 2169 241.5C2164.04 241.5 2160.93 239.608 2158.75 238.234C2156.68 236.934 2155.93 236.5 2154.5 236.5C2152.59 236.5 2150.31 237.04 2148.06 237.913Z" fill="white"/>
<path id="Vector_137" fill-rule="evenodd" clip-rule="evenodd" d="M2204.13 158.1C2206.28 159.828 2206.63 162.975 2204.9 165.129C2203.37 167.038 2200.47 169.166 2197.59 170.753C2194.71 172.343 2190.76 174 2186.96 174C2182.02 174 2177.94 171.46 2175.29 169.805L2175.19 169.744C2175.07 169.673 2174.96 169.604 2174.86 169.536C2173.52 168.7 2172.51 168.072 2171.53 167.603C2170.51 167.115 2169.91 167 2169.55 167C2169.2 167 2168.65 167.104 2167.68 167.58C2166.83 168.002 2165.98 168.534 2164.84 169.25C2164.59 169.406 2164.33 169.57 2164.05 169.744C2161.2 171.521 2157.05 174 2151.58 174C2145.84 174 2142.32 171.282 2139.96 169.437C2137.54 167.541 2136.74 167 2135.29 167C2133.24 167 2130.74 167.725 2128.19 168.953C2125.69 170.163 2123.54 171.664 2122.3 172.754C2120.23 174.578 2117.07 174.376 2115.25 172.303C2113.42 170.229 2113.62 167.07 2115.7 165.246C2117.64 163.536 2120.55 161.537 2123.85 159.947C2127.11 158.375 2131.16 157 2135.29 157C2140.36 157 2143.67 159.623 2145.75 161.269C2145.88 161.371 2146.01 161.47 2146.13 161.563C2148.24 163.218 2149.44 164 2151.58 164C2153.97 164 2156 162.979 2158.76 161.257C2158.96 161.134 2159.16 161.003 2159.38 160.868C2160.52 160.147 2161.9 159.28 2163.27 158.607C2164.97 157.771 2167.09 157 2169.55 157C2171.99 157 2174.13 157.76 2175.85 158.585C2177.36 159.31 2178.85 160.24 2180.08 161.01C2180.22 161.094 2180.35 161.177 2180.48 161.257C2183.44 163.104 2185.22 164 2186.96 164C2188.21 164 2190.35 163.324 2192.76 161.997C2195.17 160.668 2196.76 159.296 2197.1 158.871C2198.83 156.717 2201.98 156.372 2204.13 158.1Z" fill="white"/>
<path id="Vector_138" fill-rule="evenodd" clip-rule="evenodd" d="M2178.03 204.025C2180.23 205.701 2180.65 208.838 2178.98 211.033C2177.51 212.955 2174.73 215.099 2171.97 216.701C2169.22 218.293 2165.39 220 2161.64 220C2156.81 220 2152.85 217.405 2150.35 215.765C2150.31 215.737 2150.26 215.71 2150.22 215.682C2150.12 215.613 2150.01 215.545 2149.91 215.479C2148.63 214.639 2147.69 214.02 2146.77 213.559C2145.82 213.081 2145.33 213 2145.08 213C2144.86 213 2144.41 213.069 2143.51 213.535C2142.71 213.948 2141.92 214.47 2140.83 215.186C2140.59 215.342 2140.34 215.507 2140.08 215.682C2137.38 217.45 2133.34 220 2127.99 220C2122.36 220 2118.92 217.191 2116.69 215.36C2114.35 213.432 2113.69 213 2112.49 213C2110.65 213 2108.34 213.691 2105.94 214.909C2103.58 216.104 2101.56 217.591 2100.39 218.671C2098.37 220.546 2095.2 220.422 2093.33 218.395C2091.45 216.368 2091.58 213.204 2093.61 211.329C2095.47 209.609 2098.25 207.596 2101.42 205.991C2104.54 204.409 2108.46 203 2112.49 203C2117.48 203 2120.73 205.706 2122.69 207.338C2122.81 207.443 2122.93 207.544 2123.05 207.64C2125.08 209.309 2126.13 210 2127.99 210C2130.11 210 2131.95 209.05 2134.6 207.318C2134.78 207.196 2134.98 207.067 2135.18 206.932C2136.27 206.212 2137.59 205.334 2138.91 204.653C2140.55 203.806 2142.64 203 2145.08 203C2147.51 203 2149.62 203.794 2151.27 204.629C2152.73 205.363 2154.16 206.303 2155.33 207.071C2155.46 207.155 2155.58 207.238 2155.7 207.318C2158.55 209.184 2160.15 210 2161.64 210C2162.71 210 2164.67 209.373 2166.95 208.049C2169.22 206.734 2170.71 205.378 2171.03 204.967C2172.7 202.771 2175.84 202.35 2178.03 204.025Z" fill="white"/>
</g>
</g>
<defs>
<filter id="filter0_f_0_1" x="185.119" y="-11.3744" width="106.862" height="98.2111" filterUnits="userSpaceOnUse" color-interpolation-filters="sRGB">
<feFlood flood-opacity="0" result="BackgroundImageFix"/>
<feBlend mode="normal" in="SourceGraphic" in2="BackgroundImageFix" result="shape"/>
<feGaussianBlur stdDeviation="18.9384" result="effect1_foregroundBlur_0_1"/>
</filter>
<filter id="filter1_ii_0_1" x="187.451" y="-5.36005" width="50.6785" height="40.1845" filterUnits="userSpaceOnUse" color-interpolation-filters="sRGB">
<feFlood flood-opacity="0" result="BackgroundImageFix"/>
<feBlend mode="normal" in="SourceGraphic" in2="BackgroundImageFix" result="shape"/>
<feColorMatrix in="SourceAlpha" type="matrix" values="0 0 0 0 0 0 0 0 0 0 0 0 0 0 0 0 0 0 127 0" result="hardAlpha"/>
<feOffset dx="6.73367" dy="-12.6256"/>
<feGaussianBlur stdDeviation="12.6256"/>
<feComposite in2="hardAlpha" operator="arithmetic" k2="-1" k3="1"/>
<feColorMatrix type="matrix" values="0 0 0 0 0 0 0 0 0 0 0 0 0 0 0 0 0 0 0.2 0"/>
<feBlend mode="normal" in2="shape" result="effect1_innerShadow_0_1"/>
<feColorMatrix in="SourceAlpha" type="matrix" values="0 0 0 0 0 0 0 0 0 0 0 0 0 0 0 0 0 0 127 0" result="hardAlpha"/>
<feOffset dx="-15.1508" dy="9.2588"/>
<feGaussianBlur stdDeviation="12.6256"/>
<feComposite in2="hardAlpha" operator="arithmetic" k2="-1" k3="1"/>
<feColorMatrix type="matrix" values="0 0 0 0 1 0 0 0 0 1 0 0 0 0 1 0 0 0 1 0"/>
<feBlend mode="normal" in2="effect1_innerShadow_0_1" result="effect2_innerShadow_0_1"/>
</filter>
<filter id="filter2_d_0_1" x="28.0144" y="120.014" width="163.151" height="163.151" filterUnits="userSpaceOnUse" color-interpolation-filters="sRGB">
<feFlood flood-opacity="0" result="BackgroundImageFix"/>
<feColorMatrix in="SourceAlpha" type="matrix" values="0 0 0 0 0 0 0 0 0 0 0 0 0 0 0 0 0 0 127 0" result="hardAlpha"/>
<feOffset dx="10" dy="2"/>
<feGaussianBlur stdDeviation="15"/>
<feColorMatrix type="matrix" values="0 0 0 0 0 0 0 0 0 0 0 0 0 0 0 0 0 0 0.25 0"/>
<feBlend mode="normal" in2="BackgroundImageFix" result="effect1_dropShadow_0_1"/>
<feBlend mode="normal" in="SourceGraphic" in2="effect1_dropShadow_0_1" result="shape"/>
</filter>
<filter id="filter3_f_0_1" x="31.994" y="129.101" width="108.272" height="90.8546" filterUnits="userSpaceOnUse" color-interpolation-filters="sRGB">
<feFlood flood-opacity="0" result="BackgroundImageFix"/>
<feBlend mode="normal" in="SourceGraphic" in2="BackgroundImageFix" result="shape"/>
<feGaussianBlur stdDeviation="10" result="effect1_foregroundBlur_0_1"/>
</filter>
<filter id="filter4_d_0_1" x="200" y="113" width="248.174" height="177.694" filterUnits="userSpaceOnUse" color-interpolation-filters="sRGB">
<feFlood flood-opacity="0" result="BackgroundImageFix"/>
<feColorMatrix in="SourceAlpha" type="matrix" values="0 0 0 0 0 0 0 0 0 0 0 0 0 0 0 0 0 0 127 0" result="hardAlpha"/>
<feOffset dx="10" dy="2"/>
<feGaussianBlur stdDeviation="15"/>
<feColorMatrix type="matrix" values="0 0 0 0 0 0 0 0 0 0 0 0 0 0 0 0 0 0 0.25 0"/>
<feBlend mode="normal" in2="BackgroundImageFix" result="effect1_dropShadow_0_1"/>
<feBlend mode="normal" in="SourceGraphic" in2="effect1_dropShadow_0_1" result="shape"/>
</filter>
<filter id="filter5_d_0_1" x="449" y="95" width="248.174" height="177.694" filterUnits="userSpaceOnUse" color-interpolation-filters="sRGB">
<feFlood flood-opacity="0" result="BackgroundImageFix"/>
<feColorMatrix in="SourceAlpha" type="matrix" values="0 0 0 0 0 0 0 0 0 0 0 0 0 0 0 0 0 0 127 0" result="hardAlpha"/>
<feOffset dx="10" dy="2"/>
<feGaussianBlur stdDeviation="15"/>
<feColorMatrix type="matrix" values="0 0 0 0 0 0 0 0 0 0 0 0 0 0 0 0 0 0 0.25 0"/>
<feBlend mode="normal" in2="BackgroundImageFix" result="effect1_dropShadow_0_1"/>
<feBlend mode="normal" in="SourceGraphic" in2="effect1_dropShadow_0_1" result="shape"/>
</filter>
<filter id="filter6_i_0_1" x="736" y="142" width="127" height="117" filterUnits="userSpaceOnUse" color-interpolation-filters="sRGB">
<feFlood flood-opacity="0" result="BackgroundImageFix"/>
<feBlend mode="normal" in="SourceGraphic" in2="BackgroundImageFix" result="shape"/>
<feColorMatrix in="SourceAlpha" type="matrix" values="0 0 0 0 0 0 0 0 0 0 0 0 0 0 0 0 0 0 127 0" result="hardAlpha"/>
<feOffset dx="4" dy="2"/>
<feGaussianBlur stdDeviation="7.5"/>
<feComposite in2="hardAlpha" operator="arithmetic" k2="-1" k3="1"/>
<feColorMatrix type="matrix" values="0 0 0 0 0.854167 0 0 0 0 0.854167 0 0 0 0 0.854167 0 0 0 1 0"/>
<feBlend mode="normal" in2="shape" result="effect1_innerShadow_0_1"/>
</filter>
<filter id="filter7_i_0_1" x="918" y="124" width="188.174" height="155.777" filterUnits="userSpaceOnUse" color-interpolation-filters="sRGB">
<feFlood flood-opacity="0" result="BackgroundImageFix"/>
<feBlend mode="normal" in="SourceGraphic" in2="BackgroundImageFix" result="shape"/>
<feColorMatrix in="SourceAlpha" type="matrix" values="0 0 0 0 0 0 0 0 0 0 0 0 0 0 0 0 0 0 127 0" result="hardAlpha"/>
<feOffset dy="4"/>
<feGaussianBlur stdDeviation="2"/>
<feComposite in2="hardAlpha" operator="arithmetic" k2="-1" k3="1"/>
<feColorMatrix type="matrix" values="0 0 0 0 0 0 0 0 0 0 0 0 0 0 0 0 0 0 0.25 0"/>
<feBlend mode="normal" in2="shape" result="effect1_innerShadow_0_1"/>
</filter>
<filter id="filter8_d_0_1" x="898" y="96" width="248.174" height="177.694" filterUnits="userSpaceOnUse" color-interpolation-filters="sRGB">
<feFlood flood-opacity="0" result="BackgroundImageFix"/>
<feColorMatrix in="SourceAlpha" type="matrix" values="0 0 0 0 0 0 0 0 0 0 0 0 0 0 0 0 0 0 127 0" result="hardAlpha"/>
<feOffset dx="10" dy="2"/>
<feGaussianBlur stdDeviation="15"/>
<feColorMatrix type="matrix" values="0 0 0 0 0 0 0 0 0 0 0 0 0 0 0 0 0 0 0.25 0"/>
<feBlend mode="normal" in2="BackgroundImageFix" result="effect1_dropShadow_0_1"/>
<feBlend mode="normal" in="SourceGraphic" in2="effect1_dropShadow_0_1" result="shape"/>
</filter>
<filter id="filter9_d_0_1" x="1147" y="91" width="248.174" height="177.694" filterUnits="userSpaceOnUse" color-interpolation-filters="sRGB">
<feFlood flood-opacity="0" result="BackgroundImageFix"/>
<feColorMatrix in="SourceAlpha" type="matrix" values="0 0 0 0 0 0 0 0 0 0 0 0 0 0 0 0 0 0 127 0" result="hardAlpha"/>
<feOffset dx="10" dy="2"/>
<feGaussianBlur stdDeviation="15"/>
<feColorMatrix type="matrix" values="0 0 0 0 0 0 0 0 0 0 0 0 0 0 0 0 0 0 0.25 0"/>
<feBlend mode="normal" in2="BackgroundImageFix" result="effect1_dropShadow_0_1"/>
<feBlend mode="normal" in="SourceGraphic" in2="effect1_dropShadow_0_1" result="shape"/>
</filter>
<filter id="filter10_i_0_1" x="1416" y="153" width="160.869" height="100.723" filterUnits="userSpaceOnUse" color-interpolation-filters="sRGB">
<feFlood flood-opacity="0" result="BackgroundImageFix"/>
<feBlend mode="normal" in="SourceGraphic" in2="BackgroundImageFix" result="shape"/>
<feColorMatrix in="SourceAlpha" type="matrix" values="0 0 0 0 0 0 0 0 0 0 0 0 0 0 0 0 0 0 127 0" result="hardAlpha"/>
<feOffset dx="4" dy="2"/>
<feGaussianBlur stdDeviation="7.5"/>
<feComposite in2="hardAlpha" operator="arithmetic" k2="-1" k3="1"/>
<feColorMatrix type="matrix" values="0 0 0 0 0.854167 0 0 0 0 0.854167 0 0 0 0 0.854167 0 0 0 1 0"/>
<feBlend mode="normal" in2="shape" result="effect1_innerShadow_0_1"/>
</filter>
<filter id="filter11_d_0_1" x="1596" y="87" width="248" height="177.585" filterUnits="userSpaceOnUse" color-interpolation-filters="sRGB">
<feFlood flood-opacity="0" result="BackgroundImageFix"/>
<feColorMatrix in="SourceAlpha" type="matrix" values="0 0 0 0 0 0 0 0 0 0 0 0 0 0 0 0 0 0 127 0" result="hardAlpha"/>
<feOffset dx="10" dy="2"/>
<feGaussianBlur stdDeviation="15"/>
<feColorMatrix type="matrix" values="0 0 0 0 0.501961 0 0 0 0 0.501961 0 0 0 0 0.501961 0 0 0 0.302 0"/>
<feBlend mode="normal" in2="BackgroundImageFix" result="effect1_dropShadow_0_1"/>
<feBlend mode="normal" in="SourceGraphic" in2="effect1_dropShadow_0_1" result="shape"/>
</filter>
<filter id="filter12_d_0_1" x="1866.57" y="119.598" width="193.227" height="147.611" filterUnits="userSpaceOnUse" color-interpolation-filters="sRGB">
<feFlood flood-opacity="0" result="BackgroundImageFix"/>
<feColorMatrix in="SourceAlpha" type="matrix" values="0 0 0 0 0 0 0 0 0 0 0 0 0 0 0 0 0 0 127 0" result="hardAlpha"/>
<feOffset dx="10" dy="2"/>
<feGaussianBlur stdDeviation="15"/>
<feColorMatrix type="matrix" values="0 0 0 0 0.501961 0 0 0 0 0.501961 0 0 0 0 0.501961 0 0 0 0.302 0"/>
<feBlend mode="normal" in2="BackgroundImageFix" result="effect1_dropShadow_0_1"/>
<feBlend mode="normal" in="SourceGraphic" in2="effect1_dropShadow_0_1" result="shape"/>
</filter>
<filter id="filter13_i_0_1" x="2092" y="157" width="140.5" height="86.5004" filterUnits="userSpaceOnUse" color-interpolation-filters="sRGB">
<feFlood flood-opacity="0" result="BackgroundImageFix"/>
<feBlend mode="normal" in="SourceGraphic" in2="BackgroundImageFix" result="shape"/>
<feColorMatrix in="SourceAlpha" type="matrix" values="0 0 0 0 0 0 0 0 0 0 0 0 0 0 0 0 0 0 127 0" result="hardAlpha"/>
<feOffset dx="4" dy="2"/>
<feGaussianBlur stdDeviation="7.5"/>
<feComposite in2="hardAlpha" operator="arithmetic" k2="-1" k3="1"/>
<feColorMatrix type="matrix" values="0 0 0 0 1 0 0 0 0 1 0 0 0 0 1 0 0 0 0.596 0"/>
<feBlend mode="normal" in2="shape" result="effect1_innerShadow_0_1"/>
</filter>
<radialGradient id="paint0_radial_0_1" cx="0" cy="0" r="1" gradientUnits="userSpaceOnUse" gradientTransform="translate(212.302 7.99115) rotate(132.136) scale(11.1308)">
<stop stop-color="#FFF72C"/>
<stop offset="1" stop-color="#DF7800"/>
</radialGradient>
<linearGradient id="paint1_linear_0_1" x1="227.81" y1="49.6486" x2="248.592" y2="26.326" gradientUnits="userSpaceOnUse">
<stop stop-color="#254659"/>
<stop offset="1" stop-color="#023553"/>
</linearGradient>
<linearGradient id="paint2_linear_0_1" x1="314.1" y1="141.001" x2="368.763" y2="273.161" gradientUnits="userSpaceOnUse">
<stop stop-color="white" stop-opacity="0.604"/>
<stop offset="1" stop-color="white" stop-opacity="0.2"/>
</linearGradient>
<linearGradient id="paint3_linear_0_1" x1="563.101" y1="123.001" x2="617.764" y2="255.161" gradientUnits="userSpaceOnUse">
<stop stop-color="white" stop-opacity="0.604"/>
<stop offset="1" stop-color="white" stop-opacity="0.2"/>
</linearGradient>
<linearGradient id="paint4_linear_0_1" x1="1012.1" y1="124.001" x2="1066.76" y2="256.161" gradientUnits="userSpaceOnUse">
<stop stop-color="white" stop-opacity="0.604"/>
<stop offset="1" stop-color="white" stop-opacity="0.2"/>
</linearGradient>
<linearGradient id="paint5_linear_0_1" x1="1261.1" y1="119.001" x2="1315.76" y2="251.161" gradientUnits="userSpaceOnUse">
<stop stop-color="white" stop-opacity="0.604"/>
<stop offset="1" stop-color="white" stop-opacity="0.2"/>
</linearGradient>
<linearGradient id="paint6_linear_0_1" x1="1704.18" y1="238.969" x2="1675.51" y2="228.458" gradientUnits="userSpaceOnUse">
<stop stop-color="#FFD100"/>
<stop offset="1" stop-color="#FFF0AA"/>
</linearGradient>
<linearGradient id="paint7_linear_0_1" x1="1758.23" y1="245.483" x2="1745.65" y2="240.868" gradientUnits="userSpaceOnUse">
<stop stop-color="#FFD100"/>
<stop offset="1" stop-color="#FFF0AA"/>
</linearGradient>
<linearGradient id="paint8_linear_0_1" x1="1648.1" y1="259.059" x2="1635.51" y2="254.445" gradientUnits="userSpaceOnUse">
<stop stop-color="#FFD100"/>
<stop offset="1" stop-color="#FFF0AA"/>
</linearGradient>
<linearGradient id="paint9_linear_0_1" x1="1710.01" y1="115.001" x2="1764.62" y2="247.039" gradientUnits="userSpaceOnUse">
<stop stop-color="white" stop-opacity="0.604"/>
<stop offset="1" stop-color="white" stop-opacity="0.2"/>
</linearGradient>
<linearGradient id="paint10_linear_0_1" x1="1940.53" y1="158.637" x2="1969.86" y2="238.946" gradientUnits="userSpaceOnUse">
<stop stop-color="white" stop-opacity="0.596"/>
<stop offset="1" stop-color="#F7F7F7" stop-opacity="0.204"/>
</linearGradient>
<clipPath id="clip0_0_1">
<rect width="30" height="30" fill="white" transform="translate(202)"/>
</clipPath>
</defs>
</svg>
